<?xml version="1.0" encoding="UTF-8"?>
<svg version="1.1" xmlns="http://www.w3.org/2000/svg" width="1096" height="315">
<path d="M0 0 C361.68 0 723.36 0 1096 0 C1096 103.95 1096 207.9 1096 315 C734.32 315 372.64 315 0 315 C0 211.05 0 107.1 0 0 Z " fill="#FCFDFC" transform="translate(0,0)"/>
<path d="M0 0 C61.05 0 122.1 0 185 0 C185 72.27 185 144.54 185 219 C181.04 217.02 181.04 217.02 177 215 C171.93306706 214.0239336 168.11290777 214.3611085 163.625 216.9375 C162.75875 217.618125 161.8925 218.29875 161 219 C158.37657328 220.08717961 157.3134603 220.11110309 154.60571289 219.15136719 C153.7368042 218.70438477 152.86789551 218.25740234 151.97265625 217.796875 C151.01552734 217.31089844 150.05839844 216.82492188 149.07226562 216.32421875 C148.07904297 215.80472656 147.08582031 215.28523437 146.0625 214.75 C145.07314453 214.24597656 144.08378906 213.74195313 143.06445312 213.22265625 C140.36248567 211.83805692 137.66994732 210.44539279 135 209 C133.62255615 208.31345337 133.62255615 208.31345337 132.21728516 207.61303711 C130 206 130 206 129.37231445 203.89379883 C129.3693335 203.08966553 129.36635254 202.28553223 129.36328125 201.45703125 C129.33536499 200.10448242 129.33536499 200.10448242 129.30688477 198.72460938 C129.30873779 197.76361328 129.31059082 196.80261719 129.3125 195.8125 C129.27050371 193.81890167 129.22358979 191.82540115 129.171875 189.83203125 C129.13803711 188.35210693 129.13803711 188.35210693 129.10351562 186.84228516 C128.95865437 182.86475036 128.56886671 178.94605357 128.0625 175 C127.90910156 173.783125 127.75570313 172.56625 127.59765625 171.3125 C127.01068022 168.05919497 126.07140048 165.1208429 125 162 C124.875 159.125 124.875 159.125 125 157 C124.34 157 123.68 157 123 157 C122.89945313 156.42636719 122.79890625 155.85273438 122.6953125 155.26171875 C120.93344747 147.30919098 117.38898843 140.62914976 113.49267578 133.55151367 C113.05938965 132.76236572 112.62610352 131.97321777 112.1796875 131.16015625 C111.78507324 130.45511963 111.39045898 129.75008301 110.98388672 129.02368164 C110.01066116 127.02192812 109.4542692 125.17287021 109 123 C111.70592569 120.91352481 114.41516898 118.83139981 117.125 116.75 C117.88554688 116.16347656 118.64609375 115.57695313 119.4296875 114.97265625 C131.12438553 106 131.12438553 106 135 106 C135 106.66 135 107.32 135 108 C141.06369535 109.74668508 148.2360408 110.37302355 153.9375 107.3125 C158.20771678 104.08805059 160.97135828 101.29995403 162 96 C162.44924644 90.34785292 162.09347449 85.28877766 160 80 C159.01 79.67 158.02 79.34 157 79 C157 78.34 157 77.68 157 77 C150.9168427 74.36944549 143.96971786 73.57988463 137.65234375 75.83984375 C133.26517569 78.27533704 130.61584822 81.18156967 128.578125 85.7578125 C127.91107568 88.34488216 128.04009469 90.4063905 128.25 93.0625 C128.34672437 95.95104153 128.38466186 97.4442462 126.7265625 99.83984375 C124.5887353 101.75667194 122.36157903 103.36400757 120 105 C118.8284562 105.86934106 117.65934965 106.74197251 116.4921875 107.6171875 C106.38597243 115.09309025 106.38597243 115.09309025 102 116 C101.5968457 115.56131592 101.19369141 115.12263184 100.77832031 114.6706543 C98.93896581 112.67308995 97.09454728 110.68026983 95.25 108.6875 C94.61578125 107.99720703 93.9815625 107.30691406 93.328125 106.59570312 C92.709375 105.92861328 92.090625 105.26152344 91.453125 104.57421875 C90.88754883 103.96151123 90.32197266 103.34880371 89.73925781 102.7175293 C88.00639652 100.91837869 88.00639652 100.91837869 85.78417969 99.40161133 C85.19540039 98.93907959 84.60662109 98.47654785 84 98 C84 97.34 84 96.68 84 96 C83.46375 95.773125 82.9275 95.54625 82.375 95.3125 C80 94 80 94 77.0625 91.5 C74.22269854 89.18179473 72.33040073 88.30623502 69 87 C67.37725482 86.07347339 65.77309602 85.11375616 64.1875 84.125 C45.76440906 72.96849478 25.35006702 68.12552744 4 67 C2.56316762 62.43232514 1.13949961 57.86082493 -0.27246094 53.28540039 C-0.75394501 51.73156404 -1.23892115 50.17880509 -1.72753906 48.62719727 C-2.43188968 46.38836853 -3.12332053 44.14588246 -3.8125 41.90234375 C-4.03123779 41.21663803 -4.24997559 40.53093231 -4.4753418 39.82444763 C-5.8046651 35.44119127 -6.41080916 31.57346139 -6 27 C-3.6875 25 -3.6875 25 -1 23 C2.40608658 17.24488818 2.75020453 11.605697 2 5 C1.34 3.35 0.68 1.7 0 0 Z " fill="#FDFDFD" transform="translate(911,0)"/>
<path d="M0 0 C19.366875 -0.0825 38.73375 -0.165 58.6875 -0.25 C67.828927 -0.30462402 67.828927 -0.30462402 77.1550293 -0.36035156 C84.65002441 -0.37841797 84.65002441 -0.37841797 88.16902161 -0.3817749 C90.60431347 -0.38788011 93.03959393 -0.40187077 95.47480774 -0.42230225 C99.18352973 -0.45183807 102.89151878 -0.45561553 106.6003418 -0.45410156 C107.66840152 -0.468494 108.73646124 -0.48288643 109.83688641 -0.497715 C121.00799654 -0.43719686 132.53667769 2.34026587 141 10 C147.96968835 17.84281415 150.68963327 27.72330324 150.34765625 38.1015625 C149.31621804 46.70074397 146.94762394 55.35505555 140 61 C138.68694451 61.70576732 137.35699404 62.38291866 136 63 C136.845625 63.495 137.69125 63.99 138.5625 64.5 C145.0451284 68.8934401 149.67734151 74.43523015 151.5625 82.10546875 C153.40265651 94.28007565 152.38867557 106.0570782 145.25 116.375 C138.21730202 124.85301436 129.7654243 128.57843954 119 130 C115.13150496 130.14254783 111.265736 130.12626475 107.39501953 130.11352539 C106.21474623 130.11364593 105.03447292 130.11376646 103.81843376 130.11389065 C100.00654069 130.11314562 96.1946968 130.105536 92.3828125 130.09765625 C90.02596053 130.09618556 87.66910823 130.09516563 85.31225586 130.09460449 C76.58316558 130.0893663 67.85408231 130.07540507 59.125 130.0625 C39.61375 130.041875 20.1025 130.02125 0 130 C0 87.1 0 44.2 0 0 Z " fill="#1E1E1E" transform="translate(469,87)"/>
<path d="M0 0 C0.76013397 -0.0049649 1.52026794 -0.00992981 2.30343628 -0.01504517 C4.81102417 -0.02961222 7.31854866 -0.03646207 9.82617188 -0.04199219 C11.11886238 -0.04623325 11.11886238 -0.04623325 12.43766785 -0.05056 C17.00434677 -0.06553594 21.57099427 -0.0747736 26.13769531 -0.07910156 C30.82331226 -0.08456289 35.5086352 -0.10854574 40.19416046 -0.13707352 C43.82333166 -0.15583572 47.45243421 -0.16091281 51.08164978 -0.16243744 C52.80697729 -0.16543739 54.53230437 -0.17337437 56.25758362 -0.18662262 C71.92446105 -0.29827366 86.43909697 0.76239282 98.54492188 11.78613281 C108.82481083 22.7213135 109.60774715 37.43050326 109.59570312 51.72363281 C109.59998825 52.87677979 109.60427338 54.02992676 109.60868835 55.21801758 C109.61439068 57.63817696 109.61496248 60.05835347 109.6105957 62.47851562 C109.60743003 66.15166762 109.63096769 69.82401714 109.65625 73.49707031 C109.65852306 75.86425681 109.65922646 78.23144544 109.65820312 80.59863281 C109.66741287 81.68023682 109.67662262 82.76184082 109.68611145 83.8762207 C109.6200244 94.92627444 107.48985092 104.90454809 101.29492188 114.16113281 C100.91078125 114.77601563 100.52664063 115.39089844 100.13085938 116.02441406 C94.71586266 123.5157132 85.00941679 127.61813416 76.14086914 129.23266602 C68.02680191 130.5210566 59.92722319 130.48959067 51.73632812 130.49707031 C50.05826205 130.50351595 48.38019705 130.51024554 46.70213318 130.51724243 C43.20333249 130.52914165 39.70463001 130.53293067 36.20581055 130.53173828 C31.75679199 130.53153498 27.30841133 130.55888169 22.8595438 130.5932827 C19.39936005 130.61568085 15.93932706 130.61957197 12.47907829 130.61851883 C10.84026827 130.62085368 9.2014527 130.62955543 7.56271553 130.64518356 C-7.06154187 130.77166171 -19.93640434 128.66511115 -31.70507812 119.16113281 C-41.98872145 108.4704286 -44.01515175 96.00966248 -44.04101562 81.71191406 C-44.04767242 80.4223027 -44.05432922 79.13269135 -44.06118774 77.80400085 C-44.07310813 75.08162082 -44.07687421 72.35936714 -44.07568359 69.63696289 C-44.07548114 66.18544297 -44.10272905 62.73475322 -44.13722801 59.28342915 C-44.1651132 55.94708226 -44.16365338 52.6108754 -44.16601562 49.27441406 C-44.18038666 48.05418045 -44.19475769 46.83394684 -44.20956421 45.57673645 C-44.14348785 32.96507335 -41.21208551 21.72941042 -32.70507812 12.16113281 C-23.6704437 3.28020673 -12.4300755 0.01957992 0 0 Z " fill="#1E1E1E" transform="translate(287.705078125,86.8388671875)"/>
<path d="M0 0 C45.73359073 0 45.73359073 0 51.203125 5.0234375 C56.64545542 11.27588581 61.76124425 17.73462549 66.75146484 24.34863281 C68.73583223 26.97324388 70.74338131 29.57988095 72.75 32.1875 C73.15500732 32.71424316 73.56001465 33.24098633 73.97729492 33.78369141 C79.35177112 40.76752063 84.77135111 47.71639021 90.18554688 54.66943359 C93.70211218 59.18627057 97.21611504 63.70510239 100.72924805 68.22460938 C103.75406641 72.11530274 106.78247186 76.00312853 109.81640625 79.88671875 C110.44353516 80.69044922 111.07066406 81.49417969 111.71679688 82.32226562 C112.90834543 83.84921303 114.1009762 85.37531684 115.29492188 86.90039062 C116.10993164 87.94549805 116.10993164 87.94549805 116.94140625 89.01171875 C117.41263916 89.61459717 117.88387207 90.21747559 118.36938477 90.83862305 C120.63973585 93.84796848 122.80890515 96.93246722 125 100 C125.33 67 125.66 34 126 0 C136.56 0 147.12 0 158 0 C158 42.9 158 85.8 158 130 C111 130 111 130 103 123 C101.30723363 121.01415766 99.6760108 118.97342638 98.125 116.875 C97.2723363 115.73552673 96.41946582 114.59620818 95.56640625 113.45703125 C95.14117676 112.88291504 94.71594727 112.30879883 94.27783203 111.71728516 C92.23727855 108.97497466 90.14979773 106.26929647 88.0625 103.5625 C87.65273926 103.02931152 87.24297852 102.49612305 86.82080078 101.94677734 C83.28269027 97.34819774 79.69695836 92.78784052 76.10571289 88.23071289 C72.62652881 83.81084465 69.1911997 79.3589939 65.76953125 74.89453125 C62.2535565 70.31378181 58.68681884 65.77420184 55.11206055 61.23925781 C51.22499591 56.30195077 47.39488662 51.32289877 43.58203125 46.328125 C40.10478037 41.84610117 36.54372334 37.42965418 33 33 C32.67 65.01 32.34 97.02 32 130 C21.44 130 10.88 130 0 130 C0 87.1 0 44.2 0 0 Z " fill="#1D1D1D" transform="translate(17,87)"/>
<path d="M0 0 C2.51490324 0.00747142 5.02981234 0.01316009 7.54472351 0.01715088 C13.45536114 0.03078954 19.36568829 0.06221608 25.27619952 0.10254884 C32.67691755 0.15193673 40.07767458 0.17319127 47.47851562 0.1953125 C60.65643256 0.23805781 73.83398927 0.30834924 87.01171875 0.390625 C87.01171875 8.970625 87.01171875 17.550625 87.01171875 26.390625 C83.74120605 26.39473389 80.47069336 26.39884277 77.10107422 26.40307617 C66.29628409 26.42027216 55.49173074 26.46477152 44.68708611 26.52271557 C38.13607071 26.55700871 31.5852891 26.58209925 25.03417969 26.58618164 C18.71216271 26.59045946 12.39067335 26.61888051 6.06882095 26.66405678 C3.65673012 26.67704811 1.2445762 26.68133372 -1.16754532 26.67677879 C-4.54603322 26.67188479 -7.922972 26.69791493 -11.30126953 26.73120117 C-12.7977578 26.71826271 -12.7977578 26.71826271 -14.32447815 26.70506287 C-18.83496422 26.77957619 -22.00082398 26.90916629 -25.59371948 29.80683899 C-28.91987014 33.39583037 -29.28832577 35.38317185 -29.19921875 40.29296875 C-28.86835281 43.58324672 -27.87177501 45.69095061 -25.98828125 48.390625 C-21.42181584 51.21678751 -17.93887802 51.76686106 -12.61279297 51.77539062 C-11.54311531 51.78344978 -11.54311531 51.78344978 -10.451828 51.79167175 C-8.91157606 51.80141239 -7.37126948 51.80440518 -5.83098984 51.80131531 C-3.38219166 51.79680916 -0.93410564 51.81091883 1.51461792 51.82971191 C6.72197335 51.86640425 11.92925318 51.88017186 17.13671875 51.890625 C23.15570453 51.9027609 29.174342 51.92464473 35.19317245 51.97062683 C37.58596829 51.98404656 39.97830658 51.98005254 42.37112427 51.97521973 C56.32112789 52.02521559 69.73329063 53.94956147 80.4140625 63.6328125 C83.33996573 66.85202143 85.21462325 70.45413009 87.01171875 74.390625 C87.33269531 75.07898438 87.65367187 75.76734375 87.984375 76.4765625 C92.43251464 87.6072561 90.42411201 99.59466623 86.01171875 110.390625 C81.59298688 119.26329777 73.17923483 125.64020061 63.96398067 128.76288891 C53.02301605 131.97606733 41.22956173 130.99855208 29.953125 130.87890625 C27.35140161 130.86956456 24.74966934 130.86245487 22.14793396 130.85746765 C16.03893778 130.84043499 9.93046872 130.80117409 3.82166952 130.7507202 C-3.14341423 130.69446607 -10.10852202 130.66725049 -17.07377708 130.64224303 C-31.37889616 130.59024456 -45.68347845 130.49869997 -59.98828125 130.390625 C-59.98828125 121.810625 -59.98828125 113.230625 -59.98828125 104.390625 C-56.59135986 104.3812793 -53.19443848 104.37193359 -49.69458008 104.36230469 C-38.47868855 104.3285571 -27.26297322 104.27322185 -16.04723072 104.20672226 C-9.24624553 104.16692659 -2.44537614 104.13453689 4.35571289 104.11962891 C10.91755265 104.1052245 17.47907017 104.0701194 24.04076576 104.02231598 C26.54578853 104.00746391 29.05086253 103.99958181 31.55592918 103.99874115 C35.06135825 103.99638136 38.56578766 103.96937932 42.07104492 103.93652344 C43.62903053 103.94406898 43.62903053 103.94406898 45.2184906 103.95176697 C49.66823096 103.88712234 52.27522381 103.84109749 56.13301086 101.48150635 C59.79555832 97.405326 59.34621328 93.61872862 59.2890625 88.31640625 C59.18229764 85.2407762 59.18229764 85.2407762 57.38671875 82.265625 C52.50208604 78.40933602 47.27746573 78.09975494 41.25317383 78.13525391 C40.49943481 78.13163345 39.7456958 78.128013 38.96911621 78.12428284 C37.34044919 78.11741712 35.71175931 78.11487808 34.08307838 78.11623001 C31.49604071 78.11720071 28.90941238 78.10418733 26.32243347 78.08724976 C18.96978949 78.04115395 11.61718793 78.01639792 4.2644043 78.00976562 C-0.24254937 78.00472151 -4.74907578 77.98032424 -9.25588417 77.94443893 C-10.96328466 77.93470636 -12.67074441 77.93227286 -14.37816429 77.93761063 C-28.87768672 77.98080028 -39.64690309 76.00151624 -50.63671875 65.87109375 C-57.94284363 58.24972998 -60.71820369 48.7826391 -60.50952148 38.40039062 C-59.94566539 27.66272096 -56.90438638 17.91092488 -48.98828125 10.390625 C-34.36363655 -1.0928108 -17.60725121 -0.1542403 0 0 Z " fill="#1E1E1E" transform="translate(742.98828125,86.609375)"/>
<path d="M0 0 C5.07193078 -0.12355727 10.14298696 -0.21431615 15.21606445 -0.2746582 C16.94180559 -0.29981005 18.66744012 -0.33393619 20.39282227 -0.37719727 C22.87282581 -0.43782433 25.35142222 -0.46620101 27.83203125 -0.48828125 C28.98998955 -0.52699089 28.98998955 -0.52699089 30.17134094 -0.56648254 C32.35473633 -0.56762695 32.35473633 -0.56762695 36 0 C39.50871861 4.18765825 39.50150593 7.94108015 39.359375 13.20703125 C38.64945286 18.72436093 36.22796359 23.36017833 32 27 C31.34 27 30.68 27 30 27 C31.82102187 37.00694877 34.5948825 46.57948246 37.66235352 56.26586914 C37.96326904 57.22356201 38.26418457 58.18125488 38.57421875 59.16796875 C38.84838623 60.02672607 39.12255371 60.8854834 39.4050293 61.77026367 C40 64 40 64 40 67 C41.2065625 66.89558594 41.2065625 66.89558594 42.4375 66.7890625 C51.16291102 66.38723436 58.90194309 67.61740557 67.375 69.75 C68.38433594 70.00217285 69.39367187 70.2543457 70.43359375 70.51416016 C76.59631386 72.14111015 82.2735208 74.21172809 88 77 C89.07169434 77.51240234 89.07169434 77.51240234 90.16503906 78.03515625 C92.26429996 79.04892233 94.35200776 80.08324414 96.4375 81.125 C97.49614258 81.64513672 97.49614258 81.64513672 98.57617188 82.17578125 C101.39018668 83.57875711 103.76100545 84.76100545 106 87 C106.76699219 87.2990625 107.53398438 87.598125 108.32421875 87.90625 C111.23274468 89.09513651 113.34295803 90.56695885 115.8125 92.5 C116.60269531 93.1084375 117.39289063 93.716875 118.20703125 94.34375 C118.79871094 94.8903125 119.39039063 95.436875 120 96 C120 96.66 120 97.32 120 98 C120.556875 98.23074219 121.11375 98.46148437 121.6875 98.69921875 C124.61966783 100.34856316 126.6425283 102.41549752 129 104.8125 C129.845625 105.66457031 130.69125 106.51664062 131.5625 107.39453125 C133.85005865 109.83972615 135.94877435 112.35524842 138 115 C143.42068694 114.01910646 147.29743799 110.40087627 151.625 107.1875 C152.49640625 106.55779297 153.3678125 105.92808594 154.265625 105.27929688 C155.09835937 104.66505859 155.93109375 104.05082031 156.7890625 103.41796875 C157.54912598 102.85875732 158.30918945 102.2995459 159.09228516 101.72338867 C161.12447574 99.88755129 162.07445181 98.56556006 163 96 C162.95875 94.7625 162.9175 93.525 162.875 92.25 C162.75838029 87.44167984 164.29989209 83.93219598 167 80 C172.51413654 74.76157029 176.85218985 73.58525562 184.3125 73.75390625 C189.41187328 74.22085468 192.48503203 76.21412933 195.8125 79.9375 C199.41994053 84.98791675 199.54497918 89.93325064 199 96 C197.25612992 102.05225499 194.1144223 105.53614126 189 109 C185.9489365 110.01702117 183.75800939 110.16582083 180.5625 110.1875 C179.61503906 110.20167969 178.66757813 110.21585937 177.69140625 110.23046875 C174.95498356 109.99614518 173.33571877 109.39701383 171 108 C171 107.34 171 106.68 171 106 C165.70942781 108.38366439 161.38019535 111.54726901 156.8125 115.0625 C155.4028149 116.13733696 153.99267643 117.21157963 152.58203125 118.28515625 C151.96561768 118.75832275 151.3492041 119.23148926 150.71411133 119.71899414 C149.18054652 120.86507227 147.59296156 121.93802562 146 123 C146.93742022 127.23439288 148.84032222 130.85483592 150.8125 134.6875 C151.53897112 136.12438853 152.26424107 137.561885 152.98828125 139 C153.33584473 139.68964844 153.6834082 140.37929687 154.04150391 141.08984375 C159.61876315 152.20458556 159.61876315 152.20458556 159 157 C159.66 157 160.32 157 161 157 C161.65426411 159.62314261 162.29847415 162.2481394 162.9375 164.875 C163.11990234 165.60203125 163.30230469 166.3290625 163.49023438 167.078125 C165.76148637 176.4934969 166.16963554 185.97727925 166.5625 195.625 C166.60568359 196.62917969 166.64886719 197.63335937 166.69335938 198.66796875 C166.79809859 201.11188383 166.90027256 203.55587617 167 206 C168.03898437 206.51949219 169.07796875 207.03898438 170.1484375 207.57421875 C170.8197168 207.9101001 171.49099609 208.24598145 172.18261719 208.59204102 C173.64863465 209.32455999 175.11543787 210.05550843 176.58300781 210.78491211 C179.79226426 212.3820819 182.98535873 213.9921889 186.1484375 215.6796875 C187.43621094 216.36417969 187.43621094 216.36417969 188.75 217.0625 C189.48734375 217.46597656 190.2246875 217.86945313 190.984375 218.28515625 C193.46034336 219.16326131 194.57812599 218.95678973 197 218 C197.86625 217.319375 198.7325 216.63875 199.625 215.9375 C204.1781032 213.3236815 207.86017738 213.29077123 213 214 C216.401685 215.33637625 218.43478846 216.43478846 221 219 C221.22705078 221.70556641 221.22705078 221.70556641 221.1953125 225.1015625 C221.18564453 226.91914063 221.18564453 226.91914063 221.17578125 228.7734375 C221.15064453 230.67996094 221.15064453 230.67996094 221.125 232.625 C221.11597656 233.90375 221.10695313 235.1825 221.09765625 236.5 C221.07402303 239.66685167 221.04107629 242.83333424 221 246 C216.78855934 248.37874219 213.77444538 249.39363586 208.9375 249.3125 C207.93589844 249.30863281 206.93429687 249.30476562 205.90234375 249.30078125 C200.1374832 248.70334617 196.88005068 246.55058994 193.2109375 242.24609375 C191.67771749 239.40221792 191.91272045 237.39645153 191.9375 234.1875 C191.79306214 230.97220718 191.79306214 230.97220718 190 228 C183.21907853 223.0117175 173.49243637 218 165 218 C164.87044922 218.87011719 164.87044922 218.87011719 164.73828125 219.7578125 C163.68952527 225.5885109 162.31318155 228.88743154 158 233 C153.74863485 235.59805648 148.84765247 235.69252178 144 235 C139.61700917 232.80850458 136.79925276 230.59809038 135 226 C134.479061 221.2123225 134.71016137 217.04910218 135.99609375 212.39453125 C137.37128487 207.12677667 137.38360432 201.91900226 137.375 196.5 C137.37258301 194.91203613 137.37258301 194.91203613 137.37011719 193.29199219 C137.23060336 184.28924676 135.79833225 176.54833003 133 168 C132.66484375 166.89140625 132.3296875 165.7828125 131.984375 164.640625 C130.14323738 158.76651925 127.82938527 153.45667159 125 148 C125 147.34 125 146.68 125 146 C124.34 146 123.68 146 123 146 C122.54625 144.906875 122.0925 143.81375 121.625 142.6875 C113.6092449 126.54106858 93.52509759 110.6407477 77 104 C75.89205078 103.49146484 75.89205078 103.49146484 74.76171875 102.97265625 C58.02564898 95.62895709 34.77472389 91.98592882 17 97 C12.86832011 97.47725675 8.78427768 97.94131185 5.015625 95.953125 C3.375 94.625 3.375 94.625 1 92 C1 91.34 1 90.68 1 90 C0.01 89.67 -0.98 89.34 -2 89 C-2.33321563 83.7981338 -2.61147189 79.40128975 -0.5 74.5625 C5.16742459 68.75338979 11.66341264 67.11607568 19.6484375 66.90234375 C20.87820313 66.91394531 22.10796875 66.92554687 23.375 66.9375 C24.62023437 66.94652344 25.86546875 66.95554687 27.1484375 66.96484375 C28.08945312 66.97644531 29.03046875 66.98804687 30 67 C28.89742376 63.04122194 27.79264424 59.08306187 26.6875 55.125 C26.37876953 54.01640625 26.07003906 52.9078125 25.75195312 51.765625 C23.90483526 45.15488737 22.0030043 38.56524821 20 32 C18.700625 32.12375 17.40125 32.2475 16.0625 32.375 C10.10968261 32.34687645 6.28162207 30.00832704 2 26 C-2.47382496 20.61889585 -3.55047391 15.57123582 -3.46875 8.67578125 C-2.89636429 5.40841282 -1.52156941 2.93073869 0 0 Z " fill="#C1DBC0" transform="translate(875,0)"/>
<path d="M0 0 C1.2150119 -0.00953201 2.4300238 -0.01906403 3.68185425 -0.02888489 C5.6320195 -0.02751778 5.6320195 -0.02751778 7.62158203 -0.02612305 C8.98389821 -0.03001582 10.34621318 -0.03435168 11.70852661 -0.03910828 C14.55800314 -0.04654947 17.40735573 -0.04629484 20.25683594 -0.04101562 C23.89036502 -0.03522781 27.52338322 -0.05214499 31.15682793 -0.0753603 C33.96915605 -0.09016534 36.7813631 -0.09096013 39.5937233 -0.08785057 C41.57885232 -0.08860677 43.56396269 -0.1024255 45.54904175 -0.11653137 C60.03042001 -0.04267542 60.03042001 -0.04267542 65.2651062 4.6204071 C70.84631407 10.87646609 71.0719694 16.67304809 71.09033203 24.6574707 C71.10031723 26.17254715 71.10031723 26.17254715 71.11050415 27.7182312 C71.12061708 29.85486027 71.12532159 31.99152085 71.125 34.12817383 C71.12935153 37.36764943 71.16562654 40.6057379 71.20361328 43.8449707 C71.20948633 45.92829942 71.21345245 48.01163456 71.21533203 50.0949707 C71.22970306 51.05057892 71.2440741 52.00618713 71.25888062 52.99075317 C71.20672017 60.82344297 69.85641726 68.92773894 64.37939453 74.8371582 C59.46709708 77.52722585 55.08797216 78.52515644 49.50878906 78.54931641 C48.29377716 78.55884842 47.07876526 78.56838043 45.82693481 78.57820129 C44.52682465 78.57728989 43.22671448 78.57637848 41.88720703 78.57543945 C40.52489086 78.57933222 39.16257588 78.58366808 37.80026245 78.58842468 C34.95078592 78.59586588 32.10143333 78.59561124 29.25195312 78.59033203 C25.61842404 78.58454422 21.98540585 78.6014614 18.35196114 78.6246767 C15.53963301 78.63948174 12.72742596 78.64027654 9.91506577 78.63716698 C7.92993674 78.63792318 5.94482637 78.65174191 3.95974731 78.66584778 C-10.52163095 78.59199183 -10.52163095 78.59199183 -15.75631714 73.9289093 C-19.76579849 69.43462197 -21.48897008 65.07592969 -21.52026367 59.12060547 C-21.52979568 58.11929092 -21.5393277 57.11797638 -21.54914856 56.08631897 C-21.54823715 55.01538498 -21.54732574 53.94445099 -21.54638672 52.84106445 C-21.55067184 51.73037094 -21.55495697 50.61967743 -21.55937195 49.47532654 C-21.56510788 47.12939128 -21.56562095 44.78343825 -21.5612793 42.4375 C-21.55811997 38.85361314 -21.58158649 35.27055241 -21.60693359 31.68676758 C-21.60920675 29.40486758 -21.60991001 27.12296536 -21.60888672 24.84106445 C-21.61809647 23.77215469 -21.62730621 22.70324493 -21.63679504 21.60194397 C-21.60258736 16.08554664 -21.43317871 11.99693663 -18.24560547 7.2746582 C-12.68709554 1.83967072 -7.69543459 0.03332413 0 0 Z " fill="#FCFCFC" transform="translate(296.24560546875,112.725341796875)"/>
<path d="M0 0 C15.742631 14.09891512 26.51220575 32.85733158 28.25878906 54.15576172 C28.41488744 57.48242436 28.48478575 60.79479596 28.5 64.125 C28.50942627 65.6886731 28.50942627 65.6886731 28.51904297 67.28393555 C28.37714185 75.85104331 27.16704491 83.64023493 21 90 C17.57905758 92.28062828 16.31812778 92.21925007 12.3125 92.125 C11.31863281 92.10695313 10.32476563 92.08890625 9.30078125 92.0703125 C8.54152344 92.04710937 7.78226563 92.02390625 7 92 C7 91.34 7 90.68 7 90 C6.401875 89.71125 5.80375 89.4225 5.1875 89.125 C0.22676205 86.57376334 0.22676205 86.57376334 -0.69018555 84.25366211 C-1.07629923 81.44498171 -1.03840608 78.77628313 -0.95703125 75.94140625 C-0.93576172 74.74966797 -0.91449219 73.55792969 -0.89257812 72.33007812 C-0.83993364 69.85321944 -0.77518315 67.37658311 -0.69726562 64.90039062 C-0.48157954 49.98609733 -4.97674413 35.90410647 -15.5 25.0625 C-18.80856811 21.9380512 -22.12262266 19.36425447 -26 17 C-26.66 16.34 -27.32 15.68 -28 15 C-30.08020237 14.08902461 -32.18924209 13.24303952 -34.3125 12.4375 C-35.44300781 12.00308594 -36.57351563 11.56867188 -37.73828125 11.12109375 C-43.47181211 9.1504071 -48.55760449 8.8440735 -54.5625 8.875 C-55.69461914 8.86919922 -55.69461914 8.86919922 -56.84960938 8.86328125 C-60.41564816 8.86956502 -63.56594377 9.09689916 -67 10 C-71.82726994 10.37409543 -76.37724922 10.62147902 -80.9375 8.875 C-85.36299074 4.8518266 -87.27209982 1.54538902 -87.625 -4.4375 C-87.41341915 -9.29063566 -86.44213632 -12.27101737 -82.96484375 -15.69921875 C-79.26332472 -18.14972738 -75.33862009 -18.56079632 -71 -19 C-70.3407251 -19.0832251 -69.6814502 -19.1664502 -69.00219727 -19.25219727 C-43.23756222 -22.42180142 -20.20814169 -16.82997342 0 0 Z " fill="#C2DCC1" transform="translate(963,138)"/>
<path d="M0 0 C5.26161591 4.81487494 7.90308666 10.4207543 8.328125 17.515625 C8.41538 24.69962001 8.29124094 30.53921884 5.125 37.125 C4.795 38.115 4.465 39.105 4.125 40.125 C5.58569369 42.35610175 7.0593844 44.32791571 8.75 46.375 C9.24419434 46.98835205 9.73838867 47.6017041 10.24755859 48.23364258 C14.5154163 53.4875685 18.93996747 58.60755969 23.40209961 63.69677734 C27.53864191 68.4155549 31.51242384 73.23571125 35.41796875 78.1484375 C36.97926683 80.21238982 36.97926683 80.21238982 39.125 81.125 C41.00102507 81.04130042 42.87600967 80.93347912 44.75 80.8125 C50.34716153 80.76552143 53.3495586 81.70210274 57.5 85.4375 C61.75403922 89.85515611 63.39428823 92.84463984 63.75 99 C63.55306001 104.29112111 62.47622827 107.539109 58.9609375 111.5 C54.32042106 115.60735072 49.40527655 117.87727563 43.13671875 117.5078125 C37.80924068 116.49403997 32.323329 113.6452461 28.9609375 109.3125 C26.95194728 104.05532934 27.64712014 97.6615795 28.125 92.125 C28.455 91.795 28.785 91.465 29.125 91.125 C29.35441775 85.73368287 27.74346061 83.32756934 24.125 79.375 C23.30515625 78.51648438 22.4853125 77.65796875 21.640625 76.7734375 C18.02395931 72.96582983 14.77404749 68.88680093 11.47900391 64.80126953 C9.28012647 62.07903865 7.07026171 59.36574656 4.86230469 56.65087891 C2.28146729 53.47699504 -0.29686786 50.30108145 -2.875 47.125 C-3.80505859 47.66640625 -3.80505859 47.66640625 -4.75390625 48.21875 C-13.53344232 52.81938025 -22.24060679 53.80491705 -31.9140625 51.35546875 C-36.29354689 49.73415521 -40.04460415 47.9846307 -42.875 44.125 C-42.875 43.465 -42.875 42.805 -42.875 42.125 C-43.803125 41.691875 -43.803125 41.691875 -44.75 41.25 C-48.5430104 39.24193567 -49.84916829 36.64213404 -51.265625 32.66015625 C-53.5131217 23.3099937 -52.25705295 13.36449704 -47.69140625 4.94140625 C-43.53816518 -1.28257258 -37.31785479 -5.90683779 -29.953125 -7.51171875 C-17.86772047 -8.93804187 -9.63971358 -7.59740138 0 0 Z " fill="#C1DAC1" transform="translate(928.875,182.875)"/>
<path d="M0 0 C10.73549477 -0.06778556 21.47084731 -0.1228218 32.20650768 -0.15543652 C37.19154501 -0.17109019 42.17642829 -0.19232311 47.16137695 -0.22631836 C51.97243577 -0.2589223 56.78334644 -0.27685526 61.59450722 -0.28463173 C63.42972457 -0.29017337 65.26493386 -0.30099483 67.10008812 -0.31719017 C69.67131426 -0.33897825 72.24192877 -0.34196636 74.81323242 -0.34057617 C75.57136734 -0.351362 76.32950226 -0.36214783 77.11061096 -0.3732605 C81.60196051 -0.34699698 84.40895464 0.27032545 88 3 C90.76529604 5.91020238 91.41227213 7.88688167 91.375 11.875 C91.21973239 16.26777954 90.65508596 19.37138252 88 23 C83.28767077 25.9656037 79.22655045 26.41924277 73.79150391 26.34057617 C72.99083496 26.34101425 72.19016602 26.34145233 71.36523438 26.34190369 C68.73542354 26.33982421 66.10626109 26.3165334 63.4765625 26.29296875 C61.6466812 26.28736979 59.81679538 26.28310111 57.98690796 26.28010559 C53.18312041 26.26868041 48.37960727 26.23923331 43.57592773 26.20599365 C38.66914583 26.17524254 33.76231935 26.16158949 28.85546875 26.14648438 C19.23683953 26.11436127 9.61848557 26.0616124 0 26 C0 17.42 0 8.84 0 0 Z " fill="#FCFCFC" transform="translate(500,165)"/>
<path d="M0 0 C10.58782622 -0.11303605 21.17525062 -0.20473633 31.76354408 -0.25906086 C36.68031893 -0.28513615 41.59665898 -0.32049643 46.51318359 -0.37719727 C51.25943642 -0.43159082 56.00527148 -0.4614361 60.75181198 -0.47438622 C62.56112621 -0.48361293 64.37041799 -0.50163093 66.17955399 -0.52865028 C68.71737012 -0.5650393 71.25346816 -0.5699414 73.79150391 -0.56762695 C74.90928726 -0.59459152 74.90928726 -0.59459152 76.0496521 -0.62210083 C81.80156791 -0.56547769 84.11860643 1.05762644 88 5 C89.96400295 8.9280059 89.33541968 13.70787038 89 18 C87.65494178 21.58682191 86.63107227 22.61307257 83.3843689 24.60371399 C79.4698906 26.21870675 76.13283959 26.40230427 71.97509766 26.34057617 C71.19393585 26.34101425 70.41277405 26.34145233 69.60794067 26.34190369 C67.04305444 26.33982476 64.4788336 26.31653671 61.9140625 26.29296875 C60.12902178 26.28736959 58.34397643 26.283101 56.55892944 26.28010559 C51.87350613 26.26868197 47.18836429 26.23923627 42.50305176 26.20599365 C37.71691698 26.17523913 32.93073648 26.16158877 28.14453125 26.14648438 C18.76287763 26.11436404 9.38150632 26.06161649 0 26 C0 17.42 0 8.84 0 0 Z " fill="#FCFCFC" transform="translate(500,113)"/>
<path d="M0 0 C4.35723482 1.58350814 6.82291549 4.97939007 9.6875 8.4375 C10.21786865 9.06712646 10.7482373 9.69675293 11.29467773 10.34545898 C14.41425139 14.05950589 17.49350505 17.806582 20.5625 21.5625 C21.28050781 22.42617187 21.99851562 23.28984375 22.73828125 24.1796875 C24.42222404 26.27952635 25.99050058 28.37783772 27.54296875 30.5703125 C32.18857927 37.29806208 32.18857927 37.29806208 39.30859375 40.609375 C41.53531119 40.49610845 43.7598745 40.32160204 45.9765625 40.08203125 C50.2865411 39.96509385 52.30564361 41.47708888 55.41015625 44.3125 C56.19712891 45.1478125 56.19712891 45.1478125 57 46 C57.825 46.86625 58.65 47.7325 59.5 48.625 C61.7894727 53.77631358 61.94442098 58.46424012 61 64 C58.5685445 69.48408576 54.54972792 73.04156073 49.0703125 75.375 C43.90007002 76.93582792 39.73497203 76.57302691 34.8125 74.375 C31.03433069 72.19156093 27.60562319 70.20163077 26 66 C25.54049898 60.95617487 25.5645971 56.04445357 26 51 C26.33 50.67 26.66 50.34 27 50 C27.22941775 44.60868287 25.61846061 42.20256934 22 38.25 C21.18015625 37.39148438 20.3603125 36.53296875 19.515625 35.6484375 C15.89895931 31.84082983 12.64904749 27.76180093 9.35400391 23.67626953 C7.15512647 20.95403865 4.94526171 18.24074656 2.73730469 15.52587891 C0.15646729 12.35199504 -2.42186786 9.17608145 -5 6 C-3.35 4.02 -1.7 2.04 0 0 Z " fill="#C3DAC3" transform="translate(931,224)"/>
<path d="M0 0 C1.49080078 -0.02416992 1.49080078 -0.02416992 3.01171875 -0.04882812 C12.50916959 -0.05518519 12.50916959 -0.05518519 16.125 3.3125 C20.40388998 9.82426052 19.73088851 16.80439515 19.125 24.3125 C18.32327592 27.92025834 17.10944991 30.40360059 14.34350586 32.95727539 C10.1950355 35.49146258 5.42126196 34.78224234 0.6875 34.75 C-0.34955078 34.76998047 -1.38660156 34.78996094 -2.45507812 34.81054688 C-6.94077154 34.80766589 -10.00175758 34.79592172 -13.97265625 32.59765625 C-18.07790355 27.66630169 -18.23928028 23.04419859 -18.25 16.875 C-18.27449219 16.13701172 -18.29898438 15.39902344 -18.32421875 14.63867188 C-18.35211787 9.40758765 -17.33274769 6.45056266 -13.875 2.3125 C-9.42643497 -0.65321002 -5.23274385 -0.01683637 0 0 Z " fill="#1E1E1E" transform="translate(551.875,252.6875)"/>
<path d="M0 0 C5.07193078 -0.12355727 10.14298696 -0.21431615 15.21606445 -0.2746582 C16.94180559 -0.29981005 18.66744012 -0.33393619 20.39282227 -0.37719727 C22.87282581 -0.43782433 25.35142222 -0.46620101 27.83203125 -0.48828125 C28.98998955 -0.52699089 28.98998955 -0.52699089 30.17134094 -0.56648254 C32.35473633 -0.56762695 32.35473633 -0.56762695 36 0 C39.50871861 4.18765825 39.50150593 7.94108015 39.359375 13.20703125 C38.64945286 18.72436093 36.22796359 23.36017833 32 27 C31.34 27 30.68 27 30 27 C29.67 28.32 29.34 29.64 29 31 C28.01 31 27.02 31 26 31 C23.39719432 31.32041397 23.39719432 31.32041397 21 32 C20.67 32.66 20.34 33.32 20 34 C20 33.34 20 32.68 20 32 C18.700625 32.12375 17.40125 32.2475 16.0625 32.375 C10.10968261 32.34687645 6.28162207 30.00832704 2 26 C-2.47382496 20.61889585 -3.55047391 15.57123582 -3.46875 8.67578125 C-2.89636429 5.40841282 -1.52156941 2.93073869 0 0 Z " fill="#C4DCC4" transform="translate(875,0)"/>
<path d="M0 0 C1.03318359 -0.03287109 2.06636719 -0.06574219 3.13085938 -0.09960938 C11.66445042 -0.15982073 11.66445042 -0.15982073 15.35546875 2.77734375 C19.39949544 7.39037923 18.96561486 11.91487249 19.0625 17.75 C19.11857422 19.01360352 19.11857422 19.01360352 19.17578125 20.30273438 C19.23690519 24.64592986 19.09098139 27.53314091 16.2890625 30.98046875 C11.44891414 35.55171998 6.77025301 34.7267623 0.375 34.8125 C-0.67107422 34.84988281 -1.71714844 34.88726562 -2.79492188 34.92578125 C-10.55018835 35.01463854 -10.55018835 35.01463854 -14.48046875 32.0390625 C-17.89061583 27.19650822 -17.52987312 23.41219335 -17.5625 17.625 C-17.583125 16.72201172 -17.60375 15.81902344 -17.625 14.88867188 C-17.65407247 9.94271735 -17.63895556 6.39349505 -14.3125 2.4375 C-9.77725986 -0.58599342 -5.33765442 0.02963534 0 0 Z " fill="#1D1D1D" transform="translate(407.3125,252.5625)"/>
<path d="M0 0 C4.33242715 3.09459082 7.64071321 6.47664356 8.625 11.875 C9.20017081 17.85898859 8.72178512 22.58049641 5.625 27.875 C1.90983983 31.76581786 -1.37034815 34.67774805 -6.93359375 35.04296875 C-7.88363281 35.04941406 -8.83367187 35.05585937 -9.8125 35.0625 C-11.23369141 35.08376953 -11.23369141 35.08376953 -12.68359375 35.10546875 C-15.42001644 34.87114518 -17.03928123 34.27201383 -19.375 32.875 C-19.375 32.215 -19.375 31.555 -19.375 30.875 C-20.365 30.875 -21.355 30.875 -22.375 30.875 C-24.73223489 28.34315512 -25.375 27.40309907 -25.375 23.875 C-26.035 23.545 -26.695 23.215 -27.375 22.875 C-27.88609413 15.94683506 -27.49840271 10.63975718 -23.375 4.875 C-16.55866471 -1.60051853 -8.95616716 -2.98538905 0 0 Z " fill="#C5DCC5" transform="translate(1065.375,75.125)"/>
<path d="M0 0 C2.5 1.625 2.5 1.625 4.5 3.625 C4.72705078 6.33056641 4.72705078 6.33056641 4.6953125 9.7265625 C4.68886719 10.93828125 4.68242188 12.15 4.67578125 13.3984375 C4.65902344 14.66945312 4.64226562 15.94046875 4.625 17.25 C4.61597656 18.52875 4.60695313 19.8075 4.59765625 21.125 C4.57402303 24.29185167 4.54107629 27.45833424 4.5 30.625 C0.28855934 33.00374219 -2.72555462 34.01863586 -7.5625 33.9375 C-8.56410156 33.93363281 -9.56570313 33.92976563 -10.59765625 33.92578125 C-15.50177248 33.41754848 -18.59672201 32.05052979 -21.75 28.25 C-22.25015625 27.66476563 -22.7503125 27.07953125 -23.265625 26.4765625 C-26.39576046 21.78135931 -26.06146941 15.91977652 -25.14453125 10.5390625 C-23.62528562 5.21660466 -20.73820374 2.50017634 -16.0390625 -0.30859375 C-10.4814188 -2.6428041 -5.51609026 -2.16703546 0 0 Z " fill="#C3DAC3" transform="translate(1091.5,215.375)"/>
<path d="M0 0 C10.89 0 21.78 0 33 0 C33 8.58 33 17.16 33 26 C22.11 26 11.22 26 0 26 C0 17.42 0 8.84 0 0 Z " fill="#242424" transform="translate(194,191)"/>
<path d="M0 0 C10.56 0 21.12 0 32 0 C32 8.58 32 17.16 32 26 C21.44 26 10.88 26 0 26 C0 17.42 0 8.84 0 0 Z " fill="#212121" transform="translate(634,191)"/>
<path d="M0 0 C10.56 0 21.12 0 32 0 C32 8.58 32 17.16 32 26 C21.44 26 10.88 26 0 26 C0 17.42 0 8.84 0 0 Z " fill="#222222" transform="translate(416,191)"/>
<path d="M0 0 C4.57527405 2.04253306 7.07923994 4.7536461 9.3046875 9.1484375 C11.06816017 13.84442653 10.33466382 17.74120393 8.375 22.1875 C6.22472899 26.05349248 4.06915104 28.08058913 0 30 C-4.44450388 31.14902793 -7.85970814 31.37278772 -12.25 29.9375 C-16.39197895 27.01928756 -19.36477655 23.90567035 -21 19 C-21.54225459 14.33305478 -21.4698456 10.92228952 -19.3125 6.6875 C-18.1678125 5.3571875 -18.1678125 5.3571875 -17 4 C-16.34 3.21625 -15.68 2.4325 -15 1.625 C-10.16655417 -0.99311649 -5.36794433 -0.70650014 0 0 Z " fill="#1B1F1B" transform="translate(913,190)"/>
<path d="M0 0 C1.34771484 -0.02416992 1.34771484 -0.02416992 2.72265625 -0.04882812 C7.68473557 -0.05249288 11.09063779 0.08664358 15.125 3.3125 C16.125 4.3125 16.125 4.3125 16.1875 7.375 C16.166875 8.344375 16.14625 9.31375 16.125 10.3125 C13.25 10.5 13.25 10.5 10.125 10.3125 C9.465 9.3225 8.805 8.3325 8.125 7.3125 C4.87632495 6.83167448 4.87632495 6.83167448 1.1875 6.9375 C-0.68228516 6.92589844 -0.68228516 6.92589844 -2.58984375 6.9140625 C-5.75347712 7.09186663 -5.75347712 7.09186663 -7.796875 8.36328125 C-9.48314615 11.41201061 -9.26761691 14.48765721 -9.1875 17.875 C-9.19233398 18.90270508 -9.19233398 18.90270508 -9.19726562 19.95117188 C-9.25478386 24.08805051 -9.25478386 24.08805051 -6.875 27.3125 C-3.58630055 27.59479785 -3.58630055 27.59479785 0.125 27.5 C1.383125 27.49355469 2.64125 27.48710937 3.9375 27.48046875 C7.02133791 27.5308004 7.02133791 27.5308004 9.125 26.3125 C9.78272428 23.28315509 9.78272428 23.28315509 10.125 20.3125 C6.825 20.3125 3.525 20.3125 0.125 20.3125 C0.125 18.3325 0.125 16.3525 0.125 14.3125 C5.735 14.3125 11.345 14.3125 17.125 14.3125 C17.53485054 27.83756793 17.53485054 27.83756793 14.125 32.3125 C9.68049837 35.27550108 5.48236711 34.75862749 0.25 34.8125 C-0.74386719 34.85375 -1.73773437 34.895 -2.76171875 34.9375 C-9.89169109 35.01385847 -9.89169109 35.01385847 -12.64941406 33.046875 C-16.91357858 28.09296425 -17.1081087 23.22957105 -17.1875 17 C-17.21650391 16.25298828 -17.24550781 15.50597656 -17.27539062 14.73632812 C-17.33569502 9.45273496 -16.38413791 6.49185164 -12.875 2.3125 C-8.62694557 -0.51953629 -4.99388731 -0.0177592 0 0 Z " fill="#212121" transform="translate(626.875,252.6875)"/>
<path d="M0 0 C9.57 0 19.14 0 29 0 C29 1.98 29 3.96 29 6 C21.41 6 13.82 6 6 6 C6 8.31 6 10.62 6 13 C13.26 13 20.52 13 28 13 C28 15.31 28 17.62 28 20 C21.07 20 14.14 20 7 20 C7 22.31 7 24.62 7 27 C14.26 27 21.52 27 29 27 C29 29.31 29 31.62 29 34 C19.43 34 9.86 34 0 34 C0 22.78 0 11.56 0 0 Z " fill="#191919" transform="translate(97,253)"/>
<path d="M0 0 C9.24 0 18.48 0 28 0 C28 1.98 28 3.96 28 6 C21.07 6 14.14 6 7 6 C7 8.31 7 10.62 7 13 C13.93 13 20.86 13 28 13 C28 15.31 28 17.62 28 20 C21.07 20 14.14 20 7 20 C7 22.31 7 24.62 7 27 C13.93 27 20.86 27 28 27 C28 29.31 28 31.62 28 34 C18.76 34 9.52 34 0 34 C0 22.78 0 11.56 0 0 Z " fill="#262626" transform="translate(731,253)"/>
<path d="M0 0 C9 0 9 0 11.17578125 1.92578125 C11.77777344 2.94027344 12.37976563 3.95476562 13 5 C13.98809169 6.45550202 14.98213494 7.90697265 15.98046875 9.35546875 C17.05187419 10.96455368 18.12083029 12.57527183 19.1875 14.1875 C20.00637695 15.41629883 20.00637695 15.41629883 20.84179688 16.66992188 C24.85925752 22.71851504 24.85925752 22.71851504 26 25 C26.33 16.75 26.66 8.5 27 0 C28.98 0 30.96 0 33 0 C33 11.22 33 22.44 33 34 C23 34 23 34 20.39599609 31.796875 C19.77805176 30.79140625 19.16010742 29.7859375 18.5234375 28.75 C17.83378906 27.6671875 17.14414062 26.584375 16.43359375 25.46875 C15.74661024 24.31296659 15.06042194 23.15671017 14.375 22 C13.65300936 20.84170546 12.92777577 19.68542564 12.19921875 18.53125 C10.43419847 15.70721756 8.712766 12.85602668 7 10 C6.67 17.92 6.34 25.84 6 34 C4.02 34 2.04 34 0 34 C0 22.78 0 11.56 0 0 Z " fill="#191919" transform="translate(316,253)"/>
<path d="M0 0 C1.21751953 0.02255859 2.43503906 0.04511719 3.68945312 0.06835938 C6.69005482 0.1271947 9.68814797 0.2093586 12.6875 0.3125 C12.6875 2.2925 12.6875 4.2725 12.6875 6.3125 C4.7675 6.6425 -3.1525 6.9725 -11.3125 7.3125 C-10.6525 9.2925 -9.9925 11.2725 -9.3125 13.3125 C-7.45044922 13.33376953 -7.45044922 13.33376953 -5.55078125 13.35546875 C-3.90881757 13.402382 -2.26689163 13.45062932 -0.625 13.5 C0.59993164 13.50870117 0.59993164 13.50870117 1.84960938 13.51757812 C6.1680933 13.67493179 8.1789563 13.93531925 11.7421875 16.578125 C13.74575146 19.39437956 14.30724211 20.49470288 14.125 23.875 C14.10308594 24.61878906 14.08117187 25.36257813 14.05859375 26.12890625 C13.63916532 28.59691143 13.07111598 30.22160429 11.6875 32.3125 C7.11732553 35.12346516 2.46303966 34.71801816 -2.75 34.75 C-3.69166016 34.78287109 -4.63332031 34.81574219 -5.60351562 34.84960938 C-10.32521605 34.88626337 -12.57816924 34.86233472 -16.453125 31.9609375 C-18.48759293 29.06310293 -18.8063065 27.76914552 -18.3125 24.3125 C-16.0025 24.3125 -13.6925 24.3125 -11.3125 24.3125 C-10.9825 25.3025 -10.6525 26.2925 -10.3125 27.3125 C-4.7025 27.3125 0.9075 27.3125 6.6875 27.3125 C6.3575 25.3325 6.0275 23.3525 5.6875 21.3125 C4.44613281 21.28671875 3.20476563 21.2609375 1.92578125 21.234375 C0.28381972 21.17807918 -1.358106 21.12073217 -3 21.0625 C-3.81662109 21.04832031 -4.63324219 21.03414063 -5.47460938 21.01953125 C-10.64303889 20.81028309 -13.57950247 20.22957039 -17.3125 16.3125 C-18.44874119 14.04001762 -18.57696843 12.52947236 -18.6875 10 C-18.73648438 9.24074219 -18.78546875 8.48148437 -18.8359375 7.69921875 C-16.75322164 -1.79734387 -7.69148651 -0.26893309 0 0 Z " fill="#1F1F1F" transform="translate(817.3125,252.6875)"/>
<path d="M0 0 C2.31 0 4.62 0 7 0 C7 4.62 7 9.24 7 14 C13.27 14 19.54 14 26 14 C26 9.38 26 4.76 26 0 C28.31 0 30.62 0 33 0 C33 11.22 33 22.44 33 34 C30.69 34 28.38 34 26 34 C26 29.38 26 24.76 26 20 C19.73 20 13.46 20 7 20 C7 24.62 7 29.24 7 34 C4.69 34 2.38 34 0 34 C0 22.78 0 11.56 0 0 Z " fill="#202020" transform="translate(241,253)"/>
<path d="M0 0 C0.95068359 -0.020625 1.90136719 -0.04125 2.88085938 -0.0625 C11.72984091 -0.1119702 11.72984091 -0.1119702 15.6875 3.25 C17.04189668 5.95879335 16.75251451 8.25933268 16.6875 11.25 C13.875 11.5 13.875 11.5 10.6875 11.25 C10.28273437 10.59257812 9.87796875 9.93515625 9.4609375 9.2578125 C7.74023325 6.86676684 7.74023325 6.86676684 4.18359375 6.7890625 C2.83044929 6.79701438 1.47729421 6.82638394 0.125 6.875 C-0.90270508 6.87693359 -0.90270508 6.87693359 -1.95117188 6.87890625 C-6.08842184 6.86197373 -6.08842184 6.86197373 -9.3125 9.25 C-9.51143799 11.77475716 -9.59097435 14.16514749 -9.5625 16.6875 C-9.57023438 17.36876953 -9.57796875 18.05003906 -9.5859375 18.75195312 C-9.57139434 22.46409442 -9.42190418 24.08589372 -7.3125 27.25 C-4.09951534 27.76933501 -4.09951534 27.76933501 -0.4375 27.6875 C1.41488281 27.71650391 1.41488281 27.71650391 3.3046875 27.74609375 C7.24403752 27.16838307 8.12377982 26.14985238 10.6875 23.25 C13.9375 23 13.9375 23 16.6875 23.25 C17.17796322 28.64509537 17.17796322 28.64509537 14.8125 31.5625 C10.19315746 35.23080143 5.50999074 34.50820371 -0.1875 34.5625 C-1.19425781 34.59150391 -2.20101562 34.62050781 -3.23828125 34.65039062 C-10.61376005 34.71405678 -10.61376005 34.71405678 -13.8828125 32.54296875 C-17.26670352 27.11579928 -17.70389997 22.58722627 -17.75 16.3125 C-17.78287109 15.52681641 -17.81574219 14.74113281 -17.84960938 13.93164062 C-17.8882364 9.73534129 -17.60544068 7.06542419 -14.91015625 3.74609375 C-10.26223547 -0.72010381 -6.17723841 0.03309974 0 0 Z " fill="#1F1F1F" transform="translate(183.3125,252.75)"/>
<path d="M0 0 C1.96453125 -0.01546875 1.96453125 -0.01546875 3.96875 -0.03125 C7.5 0.5 7.5 0.5 9.9375 2.09375 C12.04945774 5.34616492 12.03267678 7.64413947 12 11.5 C12.0103125 12.716875 12.020625 13.93375 12.03125 15.1875 C11.5 18.5 11.5 18.5 9.97265625 20.90625 C6.53243665 23.12364273 3.39749434 23.08554443 -0.5625 23 C-1.28244141 23.01546875 -2.00238281 23.0309375 -2.74414062 23.046875 C-5.90135702 23.02342307 -7.97228519 22.92719771 -10.46875 20.90625 C-11.85495661 17.67176792 -11.93377765 15.01389532 -11.9375 11.5 C-11.96650391 9.6746875 -11.96650391 9.6746875 -11.99609375 7.8125 C-11.5 4.5 -11.5 4.5 -9.94140625 2.09375 C-6.54479938 -0.12355496 -4.02859985 -0.03172126 0 0 Z " fill="#F0F0F0" transform="translate(552.5,258.5)"/>
<path d="M0 0 C4.35721101 1.58349949 6.82296744 4.97935787 9.6875 8.4375 C10.21714355 9.06640137 10.74678711 9.69530273 11.29248047 10.34326172 C15.15696701 14.94495185 18.97557628 19.58516222 22.75390625 24.2578125 C24.40676173 26.27573345 26.07669425 28.26539409 27.77734375 30.2421875 C28.24124512 30.78536621 28.70514648 31.32854492 29.18310547 31.88818359 C30.49342538 33.41928661 31.81097067 34.94419743 33.12890625 36.46875 C35 39 35 39 35 42 C32.6875 44.25 32.6875 44.25 30 46 C26.28436466 44.76145489 25.40541409 43.30982822 23 40.25 C22.20335937 39.25097656 21.40671875 38.25195312 20.5859375 37.22265625 C20.1640918 36.6930127 19.74224609 36.16336914 19.30761719 35.61767578 C17.57506141 33.47430114 15.78804697 31.38073161 13.99536133 29.28759766 C9.51355043 24.05442669 5.11688027 18.75512493 0.8125 13.375 C0.33055176 12.78291748 -0.15139648 12.19083496 -0.64794922 11.58081055 C-4 7.34867754 -4 7.34867754 -4 4 C-2 1.8125 -2 1.8125 0 0 Z " fill="#1F1F1F" transform="translate(931,224)"/>
<path d="M0 0 C1.31871094 -0.00773437 2.63742187 -0.01546875 3.99609375 -0.0234375 C7.5625 0.375 7.5625 0.375 10.0078125 1.3984375 C12.4198873 4.46504516 12.1028076 7.64739551 12 11.375 C12.00708984 12.09945313 12.01417969 12.82390625 12.02148438 13.5703125 C11.98729918 16.42083152 11.86335371 18.79617119 10.53515625 21.3515625 C7.34195796 23.00823171 4.07103087 22.80618644 0.5625 22.75 C-0.52417969 22.76740234 -0.52417969 22.76740234 -1.6328125 22.78515625 C-4.48500459 22.76936921 -6.85371751 22.67727473 -9.4140625 21.3515625 C-11.06883435 18.15570541 -10.86871399 14.88525146 -10.8125 11.375 C-10.82410156 10.65054687 -10.83570313 9.92609375 -10.84765625 9.1796875 C-10.83177437 6.31036108 -10.74932996 3.95723601 -9.37890625 1.3984375 C-6.35210357 -0.19718081 -3.33507924 -0.0575565 0 0 Z " fill="#F6F6F6" transform="translate(407.4375,258.625)"/>
<path d="M0 0 C3.35309562 2.03815616 4.5282548 3.36541791 5.61328125 7.125 C6.26540592 11.02457376 6.13600169 13.59199493 4.875 17.375 C2.7501439 20.34979854 1.38198107 21.61646229 -2 23 C-7.03556026 23.53952431 -9.94354166 23.04234376 -14 20 C-17.21177039 17.24705395 -17.86947882 14.96958591 -18.4375 10.75 C-17.93705282 6.46045278 -17.048461 4.43533585 -14.11328125 1.33203125 C-9.74771372 -1.4196481 -4.90516278 -0.95492665 0 0 Z " fill="#1D221D" transform="translate(899,0)"/>
<path d="M0 0 C11.88 0 23.76 0 36 0 C36 1.98 36 3.96 36 6 C31.05 6 26.1 6 21 6 C21 15.24 21 24.48 21 34 C18.69 34 16.38 34 14 34 C14 25.09 14 16.18 14 7 C9.38 7 4.76 7 0 7 C0 4.69 0 2.38 0 0 Z " fill="#252525" transform="translate(18,253)"/>
<path d="M0 0 C2.75329021 1.79562405 4.52627461 3.05254922 6 6 C6.42071592 9.05920574 6.48514117 11.9467746 6 15 C3.10799895 18.65305395 0.88959163 20.74232841 -3.75 21.375 C-8.2753858 20.8528401 -9.7671103 19.15770622 -13 16 C-14.57455739 12.85088521 -14.34799118 10.47991184 -14 7 C-10.39779047 0.95151385 -6.91761022 -0.58623815 0 0 Z " fill="#1F251F" transform="translate(1060,82)"/>
<path d="M0 0 C1.98 0 3.96 0 6 0 C6 9.24 6 18.48 6 28 C13.26 28 20.52 28 28 28 C28 29.98 28 31.96 28 34 C18.76 34 9.52 34 0 34 C0 22.78 0 11.56 0 0 Z " fill="#1A1A1A" transform="translate(467,253)"/>
<path d="M0 0 C2.75569447 2.18159145 4.43588747 3.87177494 6 7 C6.41204834 11.63554388 5.87454146 14.30416098 3 18 C-0.42094119 20.56570589 -3.84773484 20.43708054 -8 20 C-11.22618733 17.9209015 -12.8669302 16.19960471 -15 13 C-15.50474782 8.35632001 -14.79965982 5.73287976 -12 2 C-7.99745384 -0.66836411 -4.70686701 -0.8340238 0 0 Z " fill="#1D231D" transform="translate(1088,222)"/>
<path d="M0 0 C2.8100346 1.79363911 4.50940468 3.01880935 6 6 C6.5811138 13.08958838 6.5811138 13.08958838 4.125 16.9375 C0.8698054 20.09695358 -1.42413238 20.33421243 -5.9609375 20.29296875 C-9.13134567 19.83745033 -10.8192402 18.24684343 -13 16 C-14.60086627 12.79826746 -14.49917089 9.47422941 -14 6 C-10.32759145 0.24655994 -6.71744997 -0.96515086 0 0 Z " fill="#1D231D" transform="translate(978,272)"/>
<path d="M0 0 C2.63930832 2.63930832 3.08550003 5.00855231 4.1640625 8.58203125 C4.36099701 9.23322433 4.55793152 9.88441742 4.76083374 10.55534363 C5.17576465 11.93381111 5.58743713 13.31326297 5.99609375 14.69360352 C6.62036455 16.79688236 7.2586302 18.89554309 7.8984375 20.99414062 C8.30033383 22.33568176 8.70140247 23.67747118 9.1015625 25.01953125 C9.46588379 26.23745361 9.83020508 27.45537598 10.20556641 28.71020508 C10.91314395 31.64032413 11.17198871 34.00859959 11 37 C8.03 37 5.06 37 2 37 C0.8677538 33.21045974 -0.2544389 29.4180104 -1.375 25.625 C-1.69210937 24.56410156 -2.00921875 23.50320312 -2.3359375 22.41015625 C-4.22806626 15.98480233 -5.82711952 9.59583652 -7 3 C-4.69 2.01 -2.38 1.02 0 0 Z " fill="#202120" transform="translate(903,29)"/>
<path d="M0 0 C0.33 0 0.66 0 1 0 C1 3.3 1 6.6 1 10 C1.99 10.33 2.98 10.66 4 11 C4.33 7.37 4.66 3.74 5 0 C5.33 0 5.66 0 6 0 C6.05607422 1.22976563 6.05607422 1.22976563 6.11328125 2.484375 C6.21189453 4.10085938 6.21189453 4.10085938 6.3125 5.75 C6.37050781 6.81734375 6.42851562 7.8846875 6.48828125 8.984375 C7.05971431 12.35190417 7.37986279 13.79467409 10 16 C12.78736585 16.40937555 15.09705373 16.5600637 17.875 16.5 C18.93654297 16.52320313 18.93654297 16.52320313 20.01953125 16.546875 C25.02244224 16.50960937 27.40651566 15.38983166 31 12 C33.3125 11.25 33.3125 11.25 35 11 C35.35671933 14.83473284 35.29771416 16.55342875 33.125 19.8125 C29.34499569 23.70368091 26.09832036 23.23224066 20.89257812 23.33203125 C19.83490234 23.34621094 18.77722656 23.36039062 17.6875 23.375 C16.64142578 23.41238281 15.59535156 23.44976562 14.51757812 23.48828125 C6.76231165 23.57713854 6.76231165 23.57713854 2.83203125 20.6015625 C-0.22440859 16.26128759 -0.12055138 13.04603796 -0.0625 7.875 C-0.05798828 7.12089844 -0.05347656 6.36679687 -0.04882812 5.58984375 C-0.03703499 3.72652873 -0.01909942 1.86325445 0 0 Z " fill="#181818" transform="translate(390,264)"/>
<path d="M0 0 C0.66 0.33 1.32 0.66 2 1 C1.9175 2.051875 1.835 3.10375 1.75 4.1875 C2.03730349 8.56887825 2.94845581 9.94845581 6 13 C8.82001327 14.41000664 10.87007255 14.24548451 14 14 C16.83022185 12.58488907 18.76583825 11.23416175 21 9 C23 11 23 11 23 14.9375 C22.46947428 18.18549635 22.25291011 18.78702307 19.625 21 C14.18072055 22.50187019 7.96886032 23.29577349 2.6640625 20.98046875 C2.11492187 20.65691406 1.56578125 20.33335938 1 20 C1 19.34 1 18.68 1 18 C0.01 18 -0.98 18 -2 18 C-4.35723489 15.46815512 -5 14.52809907 -5 11 C-5.66 10.67 -6.32 10.34 -7 10 C-6.84518205 7.29068581 -6.51827919 5.53415961 -4.59765625 3.5546875 C-3.10228292 2.32320358 -1.5537076 1.1570163 0 0 Z " fill="#BED7BF" transform="translate(1045,88)"/>
<path d="M0 0 C0.99 0 1.98 0 3 0 C5.10770759 2.88834003 6 4.38462395 6 8 C4.3034668 9.59399414 4.3034668 9.59399414 1.94921875 11.28515625 C1.10552734 11.89810547 0.26183594 12.51105469 -0.60742188 13.14257812 C-1.50009766 13.77615234 -2.39277344 14.40972656 -3.3125 15.0625 C-4.19357422 15.69994141 -5.07464844 16.33738281 -5.98242188 16.99414062 C-15.69022491 24 -15.69022491 24 -19 24 C-20.8125 21.75 -20.8125 21.75 -22 19 C-20.79251923 15.39553284 -18.71380346 13.75685139 -15.68359375 11.58203125 C-14.41418945 10.66067383 -14.41418945 10.66067383 -13.11914062 9.72070312 C-11.79172852 8.77614258 -11.79172852 8.77614258 -10.4375 7.8125 C-8.685869 6.54863282 -6.93454986 5.28433326 -5.18359375 4.01953125 C-4.40556396 3.46370361 -3.62753418 2.90787598 -2.82592773 2.33520508 C-1.07632237 1.12745537 -1.07632237 1.12745537 0 0 Z " fill="#202220" transform="translate(1037,99)"/>
<path d="M0 0 C0.99 0.33 1.98 0.66 3 1 C3.33 2.65 3.66 4.3 4 6 C11.26 6.33 18.52 6.66 26 7 C26 9.31 26 11.62 26 14 C19.07 14 12.14 14 5 14 C5 16.31 5 18.62 5 21 C12.26 21 19.52 21 27 21 C27 21.33 27 21.66 27 22 C23.20847666 22.0867982 19.41720704 22.14032207 15.625 22.1875 C14.54476562 22.21263672 13.46453125 22.23777344 12.3515625 22.26367188 C10.8046875 22.27817383 10.8046875 22.27817383 9.2265625 22.29296875 C8.27346191 22.3086792 7.32036133 22.32438965 6.33837891 22.34057617 C5.56671387 22.22818604 4.79504883 22.1157959 4 22 C3.34 21.01 2.68 20.02 2 19 C1.01 19 0.02 19 -1 19 C-1.02690104 16.20826945 -1.04679053 13.41679652 -1.0625 10.625 C-1.07087891 9.8309375 -1.07925781 9.036875 -1.08789062 8.21875 C-1.11328125 2.2265625 -1.11328125 2.2265625 0 0 Z " fill="#323232" transform="translate(99,259)"/>
<path d="M0 0 C6.80981107 2.06836845 12.818894 4.79202459 19.0625 8.1875 C20.3609082 8.88262695 20.3609082 8.88262695 21.68554688 9.59179688 C23.79381692 10.72164325 25.89843698 11.8577417 28 13 C27.34 15.64 26.68 18.28 26 21 C20.07570956 19.26460179 14.6641012 16.55448391 9.125 13.875 C8.15046875 13.40707031 7.1759375 12.93914062 6.171875 12.45703125 C3.77970501 11.30785155 1.38915684 10.15542757 -1 9 C-0.67 6.03 -0.34 3.06 0 0 Z " fill="#242424" transform="translate(1041,207)"/>
<path d="M0 0 C2.31 0 4.62 0 7 0 C7 11.22 7 22.44 7 34 C4.69 34 2.38 34 0 34 C0 22.78 0 11.56 0 0 Z " fill="#292929" transform="translate(683,253)"/>
<path d="M0 0 C0.98613281 0.00322266 1.97226562 0.00644531 2.98828125 0.00976562 C4.02082031 0.01814453 5.05335938 0.02652344 6.1171875 0.03515625 C7.67759766 0.04192383 7.67759766 0.04192383 9.26953125 0.04882812 C11.84380712 0.06063673 14.41796896 0.0771055 16.9921875 0.09765625 C16.62864225 2.78789109 16.30207586 4.6718284 14.68969727 6.88745117 C12.58320575 8.38923147 11.40301726 8.47149889 8.83203125 8.4609375 C8.03861328 8.46029297 7.24519531 8.45964844 6.42773438 8.45898438 C5.60337891 8.44287109 4.77902344 8.42675781 3.9296875 8.41015625 C3.10146484 8.41337891 2.27324219 8.41660156 1.41992188 8.41992188 C-4.74068658 8.36478217 -4.74068658 8.36478217 -7.0078125 6.09765625 C-7.1328125 3.47265625 -7.1328125 3.47265625 -7.0078125 1.09765625 C-4.50284246 -0.15482877 -2.79927976 -0.01608781 0 0 Z " fill="#E4E4E4" transform="translate(813.0078125,258.90234375)"/>
<path d="M0 0 C0.33 0 0.66 0 1 0 C1.33 3.96 1.66 7.92 2 12 C2.66 10.35 3.32 8.7 4 7 C4.33 7 4.66 7 5 7 C5.45572917 8.98567708 5.91145833 10.97135417 6.3671875 12.95703125 C6.98007723 15.27742974 6.98007723 15.27742974 9 18 C11.77262255 18.38394667 14.34323528 18.60342248 17.125 18.6875 C17.87910156 18.72166016 18.63320313 18.75582031 19.41015625 18.79101562 C21.27291201 18.87354278 23.13643326 18.93844711 25 19 C25 19.33 25 19.66 25 20 C23.35 20.33 21.7 20.66 20 21 C20.33 21.99 20.66 22.98 21 24 C18.24835568 24.13517903 15.50335479 24.23415251 12.75 24.3125 C11.97269531 24.35439453 11.19539062 24.39628906 10.39453125 24.43945312 C6.53159758 24.52199444 4.62343546 24.46950078 1.46875 22.09375 C-0.60581473 17.72392217 -0.43488798 13.95547656 -0.25 9.1875 C-0.23195313 8.30384766 -0.21390625 7.42019531 -0.1953125 6.50976562 C-0.14838513 4.33937457 -0.07664731 2.16954481 0 0 Z " fill="#141414" transform="translate(535,262)"/>
<path d="M0 0 C0.68900391 -0.00386719 1.37800781 -0.00773437 2.08789062 -0.01171875 C7.18580665 -0.00169335 7.18580665 -0.00169335 8.3125 1.125 C8.35330783 3.12458364 8.35504356 5.12545254 8.3125 7.125 C5.24716836 8.65766582 2.04495728 8.22776471 -1.3125 8.1875 C-2.01890625 8.18298828 -2.7253125 8.17847656 -3.453125 8.17382812 C-5.19795275 8.16203875 -6.942737 8.14410324 -8.6875 8.125 C-9.6775 5.815 -10.6675 3.505 -11.6875 1.125 C-7.84098294 -0.12091555 -3.99696388 -0.02281806 0 0 Z " fill="#F7F7F7" transform="translate(815.6875,272.875)"/>
<path d="M0 0 C-1 3 -2 6 -3 9 C-3.22560676 11.39254576 -3.40848595 13.78928123 -3.5625 16.1875 C-3.64628906 17.45980469 -3.73007812 18.73210937 -3.81640625 20.04296875 C-3.87699219 21.01878906 -3.93757813 21.99460937 -4 23 C-6.16874252 22.49396008 -7.99967627 22.00016187 -10 21 C-10.51953125 18.015625 -10.51953125 18.015625 -10.8125 14.25 C-10.92207031 13.01765625 -11.03164063 11.7853125 -11.14453125 10.515625 C-10.98607937 6.66139013 -10.35285457 5.00732676 -8 2 C-4.77208445 -0.1519437 -3.71599191 -0.20086443 0 0 Z " fill="#292929" transform="translate(401,253)"/>
<path d="M0 0 C1.9375 0.8125 1.9375 0.8125 4 2 C4.94137255 4.82411765 5.11725382 6.52918032 5.09765625 9.44921875 C5.09443359 10.29677734 5.09121094 11.14433594 5.08789062 12.01757812 C5.07951172 12.89865234 5.07113281 13.77972656 5.0625 14.6875 C5.05798828 15.58017578 5.05347656 16.47285156 5.04882812 17.39257812 C5.03704983 19.59511987 5.02060164 21.79752599 5 24 C4.34 22.68 3.68 21.36 3 20 C1.35 20.33 -0.3 20.66 -2 21 C-2.33 15.72 -2.66 10.44 -3 5 C-2.34 5 -1.68 5 -1 5 C-0.67 3.35 -0.34 1.7 0 0 Z " fill="#222222" transform="translate(421,256)"/>
<path d="M0 0 C-0.33 2.31 -0.66 4.62 -1 7 C-0.34 7.33 0.32 7.66 1 8 C0.67 8.99 0.34 9.98 0 11 C-0.99 11 -1.98 11 -3 11 C-5.60280568 11.32041397 -5.60280568 11.32041397 -8 12 C-8.33 12.66 -8.66 13.32 -9 14 C-9 13.34 -9 12.68 -9 12 C-10.65 12 -12.3 12 -14 12 C-14 9 -14 9 -12.9375 6.9375 C-12.4734375 5.9784375 -12.4734375 5.9784375 -12 5 C-12.33 4.34 -12.66 3.68 -13 3 C-9.97265625 2.26757812 -9.97265625 2.26757812 -6.9453125 1.53515625 C-1.3649635 0 -1.3649635 0 0 0 Z " fill="#BAD2BB" transform="translate(904,20)"/>
<path d="M0 0 C6.6 0 13.2 0 20 0 C20 1.65 20 3.3 20 5 C11.75 5 3.5 5 -5 5 C-5 4.67 -5 4.34 -5 4 C-2.69 3.34 -0.38 2.68 2 2 C1.34 1.34 0.68 0.68 0 0 Z " fill="#141414" transform="translate(474,281)"/>
<path d="M0 0 C0.99 0.66 1.98 1.32 3 2 C3.99 2.33 4.98 2.66 6 3 C5.67 7.62 5.34 12.24 5 17 C4.34 16.34 3.68 15.68 3 15 C2.731875 15.639375 2.46375 16.27875 2.1875 16.9375 C1 19 1 19 -2 20 C-2.05392397 17.22890693 -2.09363455 14.45886182 -2.125 11.6875 C-2.14175781 10.90181641 -2.15851562 10.11613281 -2.17578125 9.30664062 C-2.18544922 8.1706543 -2.18544922 8.1706543 -2.1953125 7.01171875 C-2.20578613 6.31522217 -2.21625977 5.61872559 -2.22705078 4.90112305 C-2 3 -2 3 0 0 Z " fill="#2B2B2B" transform="translate(536,258)"/>
<path d="M0 0 C2.80041057 5.00073317 4.34821126 10.25451416 4 16 C1.03 16 -1.94 16 -5 16 C-5.33 14.68 -5.66 13.36 -6 12 C-4.69864875 10.30824337 -3.36244796 8.64295195 -2 7 C-1.27802838 4.39388923 -1.27802838 4.39388923 -1 2 C-0.67 1.34 -0.34 0.68 0 0 Z " fill="#303030" transform="translate(910,50)"/>
<path d="M0 0 C5.28 0 10.56 0 16 0 C15.67 2.31 15.34 4.62 15 7 C14.01 7 13.02 7 12 7 C11.67 7.66 11.34 8.32 11 9 C11 7.68 11 6.36 11 5 C7.37 5 3.74 5 0 5 C0 3.35 0 1.7 0 0 Z " fill="#191919" transform="translate(627,268)"/>
<path d="M0 0 C3.73487777 0.4979837 5.81237635 0.87491756 9 3 C8.34 5.64 7.68 8.28 7 11 C1.25 9.125 1.25 9.125 -1 8 C-1 7.01 -1 6.02 -1 5 C-1.99 4.67 -2.98 4.34 -4 4 C-3.01 3.67 -2.02 3.34 -1 3 C-0.67 2.01 -0.34 1.02 0 0 Z " fill="#1B1D1B" transform="translate(1060,217)"/>
<path d="M0 0 C0.33 0.66 0.66 1.32 1 2 C1.99 2.33 2.98 2.66 4 3 C3.80743982 12.17286652 3.80743982 12.17286652 0.4375 15.625 C-0.7690625 16.305625 -0.7690625 16.305625 -2 17 C-4.59080963 8.74179431 -4.59080963 8.74179431 -4 5 C-2 2.1875 -2 2.1875 0 0 Z " fill="#1A1A1A" transform="translate(906,45)"/>
<path d="M0 0 C0.99 0.33 1.98 0.66 3 1 C2.67 5.95 2.34 10.9 2 16 C1.01 16 0.02 16 -1 16 C-1.66 17.32 -2.32 18.64 -3 20 C-3 14.39 -3 8.78 -3 3 C-2.34 3 -1.68 3 -1 3 C-0.67 2.01 -0.34 1.02 0 0 Z " fill="#171717" transform="translate(170,260)"/>
<path d="M0 0 C-0.375 2.4375 -0.375 2.4375 -1 5 C-3.76452033 6.38226016 -6.0461363 6.09525387 -9.125 6.0625 C-10.22070312 6.05347656 -11.31640625 6.04445313 -12.4453125 6.03515625 C-13.28835938 6.02355469 -14.13140625 6.01195312 -15 6 C-14.34 5.01 -13.68 4.02 -13 3 C-16.3 2.67 -19.6 2.34 -23 2 C-23 1.67 -23 1.34 -23 1 C-20.29178874 0.83111377 -17.58345903 0.66482399 -14.875 0.5 C-14.11445312 0.45230469 -13.35390625 0.40460938 -12.5703125 0.35546875 C-8.3724967 0.10215228 -4.20798902 -0.05377622 0 0 Z " fill="#141414" transform="translate(830,280)"/>
<path d="M0 0 C3 2 3 2 4 5 C4.07029121 7.57265818 4.09370832 10.11641431 4.0625 12.6875 C4.05798828 13.38939453 4.05347656 14.09128906 4.04882812 14.81445312 C4.03706927 16.54300538 4.01913454 18.27151365 4 20 C3.34 20.33 2.68 20.66 2 21 C1.95101562 20.07316406 1.90203125 19.14632813 1.8515625 18.19140625 C1.77679687 16.99386719 1.70203125 15.79632813 1.625 14.5625 C1.55539062 13.36753906 1.48578125 12.17257812 1.4140625 10.94140625 C1.27742187 9.97074219 1.14078125 9.00007813 1 8 C0.34 7.67 -0.32 7.34 -1 7 C-0.97679687 7.68707031 -0.95359375 8.37414062 -0.9296875 9.08203125 C-0.91164063 9.98308594 -0.89359375 10.88414062 -0.875 11.8125 C-0.85179687 12.70582031 -0.82859375 13.59914063 -0.8046875 14.51953125 C-1 17 -1 17 -3 20 C-3.27631521 17.4170535 -3.52171274 14.83725557 -3.75 12.25 C-3.83121094 11.52039063 -3.91242187 10.79078125 -3.99609375 10.0390625 C-4.30232798 6.29619973 -4.38715432 4.49080194 -2.015625 1.484375 C-1.35046875 0.99453125 -0.6853125 0.5046875 0 0 Z " fill="#282828" transform="translate(567,257)"/>
<path d="M0 0 C2.31 0 4.62 0 7 0 C7 4.29 7 8.58 7 13 C6.34 12.34 5.68 11.68 5 11 C3.35 11.66 1.7 12.32 0 13 C0 8.71 0 4.42 0 0 Z " fill="#2E2E2E" transform="translate(241,253)"/>
<path d="M0 0 C0.33 0 0.66 0 1 0 C1.19491452 1.45736087 1.38069358 2.91594593 1.5625 4.375 C1.66691406 5.18710937 1.77132812 5.99921875 1.87890625 6.8359375 C2 9 2 9 1 11 C1.99 11.33 2.98 11.66 4 12 C4.8125 13.875 4.8125 13.875 5 16 C4.34 16.99 3.68 17.98 3 19 C1.84481082 18.09515208 0.70114594 17.1755794 -0.4375 16.25 C-1.07558594 15.73953125 -1.71367188 15.2290625 -2.37109375 14.703125 C-4.18810554 12.80332371 -4.60423197 11.56413092 -5 9 C-3.68 9 -2.36 9 -1 9 C-1.020625 7.700625 -1.04125 6.40125 -1.0625 5.0625 C-1.08399454 3.70834367 -1.07148199 2.35243917 -1 1 C-0.67 0.67 -0.34 0.34 0 0 Z " fill="#C9E1C9" transform="translate(962,279)"/>
<path d="M0 0 C0.99 1.485 0.99 1.485 2 3 C5.0745356 2.2236068 5.0745356 2.2236068 7 0 C7 11.375 7 11.375 5 16 C2.17261357 13.44623161 0.4263403 11.83706273 0 8 C-0.06681953 5.32721867 -0.04458147 2.67488837 0 0 Z " fill="#C8DFC8" transform="translate(1066,228)"/>
<path d="M0 0 C1.32 0 2.64 0 4 0 C5.44207941 2.88415883 5.09394887 5.41721528 5.0625 8.625 C5.05347656 9.81351562 5.04445313 11.00203125 5.03515625 12.2265625 C5.02355469 13.14179688 5.01195312 14.05703125 5 15 C3.35 14.67 1.7 14.34 0 14 C0 9.38 0 4.76 0 0 Z " fill="#1B1B1B" transform="translate(612,263)"/>
<path d="M0 0 C2.41419718 0.96567887 3.80863755 1.75871691 5.4375 3.8125 C6 6 6 6 4.75 8.6875 C3 11 3 11 1 12 C-3 6.5 -3 6.5 -3 2 C-2.01 1.34 -1.02 0.68 0 0 Z " fill="#232323" transform="translate(330,263)"/>
<path d="M0 0 C0.33 0 0.66 0 1 0 C1 8.58 1 17.16 1 26 C-2.22914643 22.77085357 -3.82681003 19.97169202 -6 16 C-4.78763672 15.46439453 -4.78763672 15.46439453 -3.55078125 14.91796875 C-0.68863053 13.19681715 -0.68863053 13.19681715 -0.29296875 9.86328125 C-0.25816406 8.69152344 -0.22335937 7.51976562 -0.1875 6.3125 C-0.13980469 5.13300781 -0.09210938 3.95351563 -0.04296875 2.73828125 C-0.02878906 1.83464844 -0.01460938 0.93101562 0 0 Z " fill="#CECECE" transform="translate(342,253)"/>
<path d="M0 0 C3.01532925 1.00510975 4.18682851 1.46155991 6 4 C6.125 6.5 6.125 6.5 5 9 C1.4375 10.8125 1.4375 10.8125 -2 12 C-2.28571429 3.42857143 -2.28571429 3.42857143 0 0 Z " fill="#BDD8BD" transform="translate(1069,220)"/>
<path d="M0 0 C0.33 0 0.66 0 1 0 C1.06058594 0.90363281 1.12117187 1.80726563 1.18359375 2.73828125 C1.26738281 3.91777344 1.35117188 5.09726562 1.4375 6.3125 C1.51871094 7.48425781 1.59992188 8.65601563 1.68359375 9.86328125 C1.8867371 13.02590958 1.8867371 13.02590958 3 16 C2.01 16.33 1.02 16.66 0 17 C-1.20882096 19.00016466 -1.20882096 19.00016466 -2 21 C-3.5625 19.375 -3.5625 19.375 -5 17 C-4.6875 13.75 -4.6875 13.75 -4 11 C-3.01 11 -2.02 11 -1 11 C-0.67 7.37 -0.34 3.74 0 0 Z " fill="#252525" transform="translate(172,264)"/>
<path d="M0 0 C2.64 0 5.28 0 8 0 C8.33 0.66 8.66 1.32 9 2 C8.34 3.65 7.68 5.3 7 7 C1.39 6.34 -4.22 5.68 -10 5 C-10 4.67 -10 4.34 -10 4 C-6.7 3.67 -3.4 3.34 0 3 C0 2.01 0 1.02 0 0 Z " fill="#161616" transform="translate(413,254)"/>
<path d="M0 0 C2.31 1.98 4.62 3.96 7 6 C5.86695008 9.39914975 4.87481525 10.05254451 2 12 C0.68 11.34 -0.64 10.68 -2 10 C-2.125 7.625 -2.125 7.625 -2 5 C-1.34 4.34 -0.68 3.68 0 3 C0 2.01 0 1.02 0 0 Z " fill="#C0D7C0" transform="translate(1073,235)"/>
<path d="M0 0 C2.31 0.66 4.62 1.32 7 2 C7 3.65 7 5.3 7 7 C5.03533587 8.06775224 3.03144641 9.06553465 1 10 C0.34 9.67 -0.32 9.34 -1 9 C-0.67 6.03 -0.34 3.06 0 0 Z " fill="#1A1E1A" transform="translate(1041,207)"/>
<path d="M0 0 C3.91402949 1.26941497 5.79072873 2.51167694 8 6 C4.62902617 7.49821059 2.79557881 8 -1 8 C-1.93065133 5.39417629 -2.14917407 4.35801776 -1.0625 1.75 C-0.711875 1.1725 -0.36125 0.595 0 0 Z " fill="#CADECB" transform="translate(981,266)"/>
<path d="M0 0 C-3.2739705 3.85233752 -6.13245571 3.60102096 -11 4 C-11.99 2.68 -12.98 1.36 -14 0 C-9.08131894 -2.85600836 -5.15210681 -1.45920237 0 0 Z " fill="#1D1D1D" transform="translate(550,282)"/>
<path d="M0 0 C-1 3 -1 3 -4 5 C-4.7115625 5.7734375 -4.7115625 5.7734375 -5.4375 6.5625 C-7.27932041 8.25697478 -8.60871988 8.40217997 -11 9 C-12.73026102 10.47890069 -12.73026102 10.47890069 -14 12 C-13.70966507 8.63792154 -13.33816676 7.31331938 -10.8203125 4.98046875 C-9.93085937 4.38878906 -9.04140625 3.79710938 -8.125 3.1875 C-7.24070312 2.58292969 -6.35640625 1.97835937 -5.4453125 1.35546875 C-3 0 -3 0 0 0 Z " fill="#EDEEED" transform="translate(1046,106)"/>
<path d="M0 0 C0.99 0.66 1.98 1.32 3 2 C3 2.99 3 3.98 3 5 C0.6875 7.25 0.6875 7.25 -2 9 C-2.99 8.67 -3.98 8.34 -5 8 C-5.33 7.01 -5.66 6.02 -6 5 C-5.38125 4.731875 -4.7625 4.46375 -4.125 4.1875 C-1.7004767 3.04443152 -1.7004767 3.04443152 0 0 Z " fill="#222922" transform="translate(963,261)"/>
<path d="M0 0 C2.78489278 1.39244639 4.12301529 3.55991988 6 6 C3.69 6.33 1.38 6.66 -1 7 C-1.66 5.68 -2.32 4.36 -3 3 C-2.01 2.01 -1.02 1.02 0 0 Z " fill="#222222" transform="translate(539,254)"/>
<path d="M0 0 C0.66 0 1.32 0 2 0 C2 1.98 2 3.96 2 6 C-1.06533164 7.53266582 -4.26754272 7.10276471 -7.625 7.0625 C-8.33140625 7.05798828 -9.0378125 7.05347656 -9.765625 7.04882812 C-11.51045275 7.03703875 -13.255237 7.01910324 -15 7 C-15 6.67 -15 6.34 -15 6 C-8.565 5.505 -8.565 5.505 -2 5 C-1.34 3.35 -0.68 1.7 0 0 Z " fill="#CECECE" transform="translate(822,274)"/>
<path d="M0 0 C3.36720387 1.39332574 4.9859524 2.9789286 7 6 C4 6 4 6 0.9375 5.375 C-0.031875 5.25125 -1.00125 5.1275 -2 5 C-2.66 5.66 -3.32 6.32 -4 7 C-4 4 -4 4 -2 1.8125 C-1.34 1.214375 -0.68 0.61625 0 0 Z " fill="#242A25" transform="translate(931,224)"/>
<path d="M0 0 C0.33 0.99 0.66 1.98 1 3 C0.34 3 -0.32 3 -1 3 C-1.33 4.32 -1.66 5.64 -2 7 C-3.32 7.33 -4.64 7.66 -6 8 C-6.33 7.01 -6.66 6.02 -7 5 C-2.25 0 -2.25 0 0 0 Z " fill="#242E25" transform="translate(1081,222)"/>
<path d="M0 0 C0.66 0.66 1.32 1.32 2 2 C1.67 2.66 1.34 3.32 1 4 C2.32 4.33 3.64 4.66 5 5 C5 5.66 5 6.32 5 7 C2.36 7 -0.28 7 -3 7 C-2.625 4.0625 -2.625 4.0625 -2 1 C-1.34 0.67 -0.68 0.34 0 0 Z " fill="#161C16" transform="translate(909,59)"/>
<path d="M0 0 C2.31 0 4.62 0 7 0 C6.67 0.99 6.34 1.98 6 3 C7.98 3 9.96 3 12 3 C12 3.66 12 4.32 12 5 C10.56163249 4.88541307 9.12429034 4.75790884 7.6875 4.625 C6.88699219 4.55539063 6.08648438 4.48578125 5.26171875 4.4140625 C3 4 3 4 0 2 C0 1.34 0 0.68 0 0 Z " fill="#263425" transform="translate(898,216)"/>
<path d="M0 0 C1.39456452 0.00667256 2.78911118 0.01863093 4.18359375 0.03515625 C4.89451172 0.03966797 5.60542969 0.04417969 6.33789062 0.04882812 C8.09899388 0.06064761 9.86005411 0.07858362 11.62109375 0.09765625 C11.62109375 0.42765625 11.62109375 0.75765625 11.62109375 1.09765625 C10.77804687 1.13503906 9.935 1.17242187 9.06640625 1.2109375 C7.42285156 1.30955078 7.42285156 1.30955078 5.74609375 1.41015625 C4.65554688 1.46816406 3.565 1.52617187 2.44140625 1.5859375 C1.04535156 1.83923828 1.04535156 1.83923828 -0.37890625 2.09765625 C-1.36890625 3.58265625 -1.36890625 3.58265625 -2.37890625 5.09765625 C-3.69890625 5.09765625 -5.01890625 5.09765625 -6.37890625 5.09765625 C-3.96778673 0.11467592 -3.96778673 0.11467592 0 0 Z " fill="#C9C9C9" transform="translate(403.37890625,258.90234375)"/>
<path d="M0 0 C1.98 0 3.96 0 6 0 C6 1.32 6 2.64 6 4 C3 6 3 6 0 6 C0 4.02 0 2.04 0 0 Z " fill="#151515" transform="translate(194,276)"/>
<path d="M0 0 C0.66 0.33 1.32 0.66 2 1 C2 2.98 2 4.96 2 7 C0.02 7 -1.96 7 -4 7 C-3.43628586 3.73045798 -2.50037734 2.17424117 0 0 Z " fill="#191919" transform="translate(198,257)"/>
<path d="M0 0 C1.67542976 0.28604898 3.34385343 0.61781233 5 1 C4.34 2.65 3.68 4.3 3 6 C2.01 6 1.02 6 0 6 C-0.38218767 4.34385343 -0.71395102 2.67542976 -1 1 C-0.67 0.67 -0.34 0.34 0 0 Z " fill="#1D201C" transform="translate(929,228)"/>
<path d="M0 0 C0.99 0 1.98 0 3 0 C3.33 1.32 3.66 2.64 4 4 C2.02 5.32 0.04 6.64 -2 8 C-2.66 7.34 -3.32 6.68 -4 6 C-3.525625 5.566875 -3.05125 5.13375 -2.5625 4.6875 C-0.76313043 2.97690387 -0.76313043 2.97690387 0 0 Z " fill="#2C2D2C" transform="translate(1028,111)"/>
<path d="M0 0 C0.99 0.33 1.98 0.66 3 1 C3 1.66 3 2.32 3 3 C2.01 3.33 1.02 3.66 0 4 C-0.33 8.62 -0.66 13.24 -1 18 C-1.33 18 -1.66 18 -2 18 C-2.05397335 15.5622037 -2.09365616 13.12560315 -2.125 10.6875 C-2.14175781 9.99720703 -2.15851562 9.30691406 -2.17578125 8.59570312 C-2.21217794 4.82864604 -2.14378864 3.21568296 0 0 Z " fill="#DDDDDD" transform="translate(619,260)"/>
<path d="M0 0 C0.33 0 0.66 0 1 0 C1.33 2.97 1.66 5.94 2 9 C2.66 9 3.32 9 4 9 C4.33 11.31 4.66 13.62 5 16 C0.10448916 11.32701238 0.10448916 11.32701238 -0.1953125 7.51953125 C-0.17210937 6.62621094 -0.14890625 5.73289063 -0.125 4.8125 C-0.10695313 3.91144531 -0.08890625 3.01039063 -0.0703125 2.08203125 C-0.04710937 1.39496094 -0.02390625 0.70789063 0 0 Z " fill="#D3E1D3" transform="translate(1010,216)"/>
<path d="M0 0 C2.5 1.375 2.5 1.375 5 3 C5 3.66 5 4.32 5 5 C2.69 6.32 0.38 7.64 -2 9 C-2.33 8.34 -2.66 7.68 -3 7 C-2.34 6.67 -1.68 6.34 -1 6 C-0.34227572 2.97065509 -0.34227572 2.97065509 0 0 Z " fill="#262626" transform="translate(637,273)"/>
<path d="M0 0 C1.32 0.33 2.64 0.66 4 1 C3.67 1.66 3.34 2.32 3 3 C2.01 2.01 1.02 1.02 0 0 Z M2 3 C2.66 3.66 3.32 4.32 4 5 C3.34 6.32 2.68 7.64 2 9 C-0.64 8.67 -3.28 8.34 -6 8 C-6 7.67 -6 7.34 -6 7 C-4.02 7 -2.04 7 0 7 C0.66 5.68 1.32 4.36 2 3 Z " fill="#BBD0BB" transform="translate(977,264)"/>
<path d="M0 0 C1.42944945 2.35438733 2.08661261 3.48032433 1.625 6.25 C1.41875 6.8275 1.2125 7.405 1 8 C-0.32 7.67 -1.64 7.34 -3 7 C-2.25 2.25 -2.25 2.25 0 0 Z " fill="#151515" transform="translate(615,270)"/>
<path d="M0 0 C1.65 1.32 3.3 2.64 5 4 C3.35 5.65 1.7 7.3 0 9 C-1.10844919 5.67465243 -0.84454356 3.37817425 0 0 Z " fill="#BAD0BA" transform="translate(1075,238)"/>
<path d="M0 0 C-0.3125 1.875 -0.3125 1.875 -1 4 C-1.99 4.66 -2.98 5.32 -4 6 C-5.32 5.34 -6.64 4.68 -8 4 C-2.25 0 -2.25 0 0 0 Z " fill="#272727" transform="translate(643,280)"/>
<path d="M0 0 C1.9375 0.8125 1.9375 0.8125 4 2 C4.33 2.99 4.66 3.98 5 5 C3.02 5.99 3.02 5.99 1 7 C0 6 0 6 -0.0625 2.9375 C-0.041875 1.968125 -0.02125 0.99875 0 0 Z " fill="#EFEFEF" transform="translate(323,265)"/>
<path d="M0 0 C1.65 1.65 3.3 3.3 5 5 C3.68 5.99 2.36 6.98 1 8 C0 7 0 7 -0.0625 3.4375 C-0.041875 2.303125 -0.02125 1.16875 0 0 Z " fill="#EFEFEF" transform="translate(50,120)"/>
<path d="M0 0 C0.66 0.33 1.32 0.66 2 1 C-0.625 4.875 -0.625 4.875 -4 6 C-5.66710346 7.49985609 -5.66710346 7.49985609 -7 9 C-5.64978174 4.58110387 -3.73884332 2.65654657 0 0 Z " fill="#D2E2D0" transform="translate(1047,76)"/>
<path d="M0 0 C0.66 0.66 1.32 1.32 2 2 C-1.625 6.875 -1.625 6.875 -5 8 C-4.67 6.68 -4.34 5.36 -4 4 C-3.34 4 -2.68 4 -2 4 C-1.34 2.68 -0.68 1.36 0 0 Z " fill="#222F21" transform="translate(919,211)"/>
<path d="M0 0 C0.2475 0.61875 0.495 1.2375 0.75 1.875 C2.20628639 4.35068687 3.37812506 4.95125002 6 6 C6 6.66 6 7.32 6 8 C4.02 8 2.04 8 0 8 C0 5.36 0 2.72 0 0 Z " fill="#191919" transform="translate(268,279)"/>
<path d="M0 0 C0.66 0.66 1.32 1.32 2 2 C1.34 2 0.68 2 0 2 C-0.268125 2.639375 -0.53625 3.27875 -0.8125 3.9375 C-2 6 -2 6 -5 7 C-5.33 6.01 -5.66 5.02 -6 4 C-5.34 4 -4.68 4 -4 4 C-3.67 3.34 -3.34 2.68 -3 2 C-2.01 1.34 -1.02 0.68 0 0 Z " fill="#151515" transform="translate(946,241)"/>
<path d="M0 0 C0.66 0 1.32 0 2 0 C4.66590937 4.55426184 5.31563182 7.73946963 5 13 C4.67 13 4.34 13 4 13 C3.566875 11.453125 3.566875 11.453125 3.125 9.875 C2.17691202 6.54992003 1.11743406 3.27248547 0 0 Z " fill="#394739" transform="translate(918,195)"/>
<path d="M0 0 C1.2065625 0.0309375 1.2065625 0.0309375 2.4375 0.0625 C0.00739037 3.70766445 -1.48498817 4.11108057 -5.5625 5.0625 C-3.15007962 0.07683121 -3.15007962 0.07683121 0 0 Z " fill="#162216" transform="translate(1053.5625,82.9375)"/>
<path d="M0 0 C2.475 0.495 2.475 0.495 5 1 C5.33 2.32 5.66 3.64 6 5 C3 5 3 5 1.3125 3.625 C0 2 0 2 0 0 Z " fill="#151515" transform="translate(691,149)"/>
<path d="M0 0 C1.98 1.65 3.96 3.3 6 5 C5.01 5.495 5.01 5.495 4 6 C3.67 6.66 3.34 7.32 3 8 C0.9375 6.25 0.9375 6.25 -1 4 C-0.75 1.75 -0.75 1.75 0 0 Z " fill="#B7CDB6" transform="translate(964,286)"/>
<path d="M0 0 C2.52588702 2.36292656 3.88820837 3.66462511 5 7 C4.01 7 3.02 7 2 7 C1.01 5.02 0.02 3.04 -1 1 C-0.67 0.67 -0.34 0.34 0 0 Z " fill="#252525" transform="translate(387,101)"/>
<path d="M0 0 C0.99 0.33 1.98 0.66 3 1 C2.75 2.875 2.75 2.875 2 5 C-0.0625 6.25 -0.0625 6.25 -2 7 C-1.125 2.25 -1.125 2.25 0 0 Z " fill="#F0EEF1" transform="translate(1029,100)"/>
<path d="M0 0 C0 1.32 0 2.64 0 4 C-0.99 4 -1.98 4 -3 4 C-3.33 5.32 -3.66 6.64 -4 8 C-4 5.69 -4 3.38 -4 1 C-2 0 -2 0 0 0 Z " fill="#BBD5BA" transform="translate(988,276)"/>
<path d="M0 0 C1.32 0 2.64 0 4 0 C3.3125 1.9375 3.3125 1.9375 2 4 C-0.625 4.75 -0.625 4.75 -3 5 C-1.75 2.5 -1.75 2.5 0 0 Z " fill="#C9DCCA" transform="translate(927,223)"/>
<path d="M0 0 C1.32 0 2.64 0 4 0 C3.6875 1.9375 3.6875 1.9375 3 4 C2.01 4.33 1.02 4.66 0 5 C-0.5625 3.0625 -0.5625 3.0625 -1 1 C-0.67 0.67 -0.34 0.34 0 0 Z " fill="#1F281F" transform="translate(894,209)"/>
<path d="M0 0 C0.66 0.33 1.32 0.66 2 1 C-0.66666667 3.66666667 -3.33333333 6.33333333 -6 9 C-6 5.06368636 -4.57142871 3.87394974 -2 1 C-1.34 0.67 -0.68 0.34 0 0 Z " fill="#EFEFEF" transform="translate(616,140)"/>
<path d="M0 0 C2 3 2 3 1.625 5.6875 C1.41875 6.450625 1.2125 7.21375 1 8 C-0.5625 6.75 -0.5625 6.75 -2 5 C-1.74853421 2.86254078 -1.54074221 1.54074221 0 0 Z " fill="#EAF2E8" transform="translate(1022,121)"/>
<path d="M0 0 C0.78375 0.495 1.5675 0.99 2.375 1.5 C4.78552327 3.16537965 4.78552327 3.16537965 7 3 C7 3.66 7 4.32 7 5 C4.69 4.67 2.38 4.34 0 4 C0 2.68 0 1.36 0 0 Z " fill="#121B11" transform="translate(888,18)"/>
<path d="M0 0 C2.31 0 4.62 0 7 0 C6.67 0.66 6.34 1.32 6 2 C5.01 1.67 4.02 1.34 3 1 C2.67 1.99 2.34 2.98 2 4 C1.01 4.495 1.01 4.495 0 5 C0 3.35 0 1.7 0 0 Z " fill="#2C2C2C" transform="translate(799,277)"/>
<path d="M0 0 C0.33 1.65 0.66 3.3 1 5 C-1.31 4.34 -3.62 3.68 -6 3 C-2.25 0 -2.25 0 0 0 Z " fill="#CCE0CC" transform="translate(1079,244)"/>
<path d="M0 0 C0.99 0.33 1.98 0.66 3 1 C2.1875 2.9375 2.1875 2.9375 1 5 C0.01 5.33 -0.98 5.66 -2 6 C-1.34 4.02 -0.68 2.04 0 0 Z " fill="#B1C7B2" transform="translate(1069,220)"/>
<path d="M0 0 C-0.99 1.485 -0.99 1.485 -2 3 C-4.97 2.67 -7.94 2.34 -11 2 C-11 1.67 -11 1.34 -11 1 C-7.27569643 0.30710631 -3.78916254 -0.11144596 0 0 Z " fill="#C8E1C9" transform="translate(915,220)"/>
<path d="M0 0 C1.32 0.33 2.64 0.66 4 1 C3.01 1.66 2.02 2.32 1 3 C-0.2188121 6.55672179 -0.2188121 6.55672179 -1 10 C-2.31223496 6.06329512 -1.24296256 3.87511856 0 0 Z " fill="#ECF7EE" transform="translate(1040,217)"/>
<path d="M0 0 C3.37462715 0.54723683 5.08235 1.0549 8 3 C6.02 3.33 4.04 3.66 2 4 C1.34 2.68 0.68 1.36 0 0 Z " fill="#CEE0CF" transform="translate(1085,214)"/>
<path d="M0 0 C0.66 0 1.32 0 2 0 C2.66 1.65 3.32 3.3 4 5 C4.66 5 5.32 5 6 5 C5.67 6.32 5.34 7.64 5 9 C2.3534665 6.3534665 1.40058003 3.43778736 0 0 Z " fill="#EEF9ED" transform="translate(1026,136)"/>
</svg>
